<svg xmlns="http://www.w3.org/2000/svg" xmlns:xlink="http://www.w3.org/1999/xlink" width="1920" zoomAndPan="magnify" viewBox="0 0 1440 809.999993" height="1080" preserveAspectRatio="xMidYMid meet" version="1.0"><defs><filter x="0%" y="0%" width="100%" height="100%" id="262c35a96b"><feColorMatrix values="0 0 0 0 1 0 0 0 0 1 0 0 0 0 1 0 0 0 1 0" color-interpolation-filters="sRGB"/></filter><g/><mask id="9c62f45050"><g filter="url(#262c35a96b)"><rect x="-144" width="1728" fill="#000000" y="-80.999999" height="971.999992" fill-opacity="0.1"/></g></mask><clipPath id="956372a636"><path d="M 0.359375 0.839844 L 1326 0.839844 L 1326 299.136719 L 0.359375 299.136719 Z M 0.359375 0.839844 " clip-rule="nonzero"/></clipPath><clipPath id="fb390e7269"><path d="M 38.753906 0.863281 L 1287.246094 0.863281 C 1297.390625 0.863281 1307.121094 4.890625 1314.292969 12.066406 C 1321.46875 19.238281 1325.496094 28.96875 1325.496094 39.113281 L 1325.496094 260.886719 C 1325.496094 271.03125 1321.46875 280.761719 1314.292969 287.933594 C 1307.121094 295.109375 1297.390625 299.136719 1287.246094 299.136719 L 38.753906 299.136719 C 28.609375 299.136719 18.878906 295.109375 11.707031 287.933594 C 4.53125 280.761719 0.503906 271.03125 0.503906 260.886719 L 0.503906 39.113281 C 0.503906 28.96875 4.53125 19.238281 11.707031 12.066406 C 18.878906 4.890625 28.609375 0.863281 38.753906 0.863281 Z M 38.753906 0.863281 " clip-rule="nonzero"/></clipPath><clipPath id="ddb5ecaba6"><rect x="0" width="1327" y="0" height="300"/></clipPath><clipPath id="1bea62d2dc"><path d="M 965 336.8125 L 1323.492188 336.8125 L 1323.492188 473.1875 L 965 473.1875 Z M 965 336.8125 " clip-rule="nonzero"/></clipPath><clipPath id="0169a604eb"><path d="M 1323.492188 381.8125 L 1323.492188 428.1875 C 1323.492188 453.042969 1303.34375 473.1875 1278.492188 473.1875 L 1010.066406 473.1875 C 985.210938 473.1875 965.066406 453.042969 965.066406 428.1875 L 965.066406 381.8125 C 965.066406 356.957031 985.210938 336.8125 1010.066406 336.8125 L 1278.492188 336.8125 C 1303.34375 336.8125 1323.492188 356.957031 1323.492188 381.8125 Z M 1323.492188 381.8125 " clip-rule="nonzero"/></clipPath><clipPath id="36ef9ccbb0"><path d="M 1029.710938 379.65625 L 1087.148438 379.65625 L 1087.148438 430.335938 L 1029.710938 430.335938 Z M 1029.710938 379.65625 " clip-rule="nonzero"/></clipPath></defs><g mask="url(#9c62f45050)"><g transform="matrix(1, 0, 0, 1, 57, 255)"><g clip-path="url(#ddb5ecaba6)"><g clip-path="url(#956372a636)"><g clip-path="url(#fb390e7269)"><path fill="#005bff" d="M 0.503906 0.863281 L 1325.265625 0.863281 L 1325.265625 299.136719 L 0.503906 299.136719 Z M 0.503906 0.863281 " fill-opacity="1" fill-rule="nonzero"/></g></g></g></g></g><g fill="#002b80" fill-opacity="1"><g transform="translate(159.947678, 425.080444)"><g><path d="M 23.203125 -4.859375 C 25.078125 -4.859375 26.75 -5.171875 28.21875 -5.796875 C 29.6875 -6.429688 30.929688 -7.316406 31.953125 -8.453125 C 32.972656 -9.585938 33.75 -10.941406 34.28125 -12.515625 C 34.820312 -14.085938 35.09375 -15.820312 35.09375 -17.71875 L 35.09375 -45.1875 L 41.1875 -45.1875 L 41.1875 -17.71875 C 41.1875 -15.113281 40.769531 -12.695312 39.9375 -10.46875 C 39.101562 -8.238281 37.910156 -6.304688 36.359375 -4.671875 C 34.816406 -3.046875 32.929688 -1.769531 30.703125 -0.84375 C 28.484375 0.0703125 25.984375 0.53125 23.203125 0.53125 C 20.429688 0.53125 17.929688 0.0703125 15.703125 -0.84375 C 13.472656 -1.769531 11.578125 -3.046875 10.015625 -4.671875 C 8.460938 -6.304688 7.269531 -8.238281 6.4375 -10.46875 C 5.613281 -12.695312 5.203125 -15.113281 5.203125 -17.71875 L 5.203125 -45.1875 L 11.28125 -45.1875 L 11.28125 -17.75 C 11.28125 -15.863281 11.546875 -14.128906 12.078125 -12.546875 C 12.617188 -10.972656 13.398438 -9.617188 14.421875 -8.484375 C 15.441406 -7.347656 16.691406 -6.457031 18.171875 -5.8125 C 19.660156 -5.175781 21.335938 -4.859375 23.203125 -4.859375 Z M 23.203125 -4.859375 "/></g></g></g><g fill="#002b80" fill-opacity="1"><g transform="translate(206.329633, 425.080444)"><g><path d="M 10.09375 -7.6875 C 11.125 -6.300781 12.25 -5.320312 13.46875 -4.75 C 14.6875 -4.1875 16.050781 -3.90625 17.5625 -3.90625 C 20.550781 -3.90625 22.84375 -4.96875 24.4375 -7.09375 C 26.03125 -9.21875 26.828125 -12.242188 26.828125 -16.171875 C 26.828125 -18.253906 26.644531 -20.039062 26.28125 -21.53125 C 25.914062 -23.03125 25.382812 -24.253906 24.6875 -25.203125 C 24 -26.160156 23.148438 -26.859375 22.140625 -27.296875 C 21.128906 -27.742188 19.984375 -27.96875 18.703125 -27.96875 C 16.867188 -27.96875 15.265625 -27.546875 13.890625 -26.703125 C 12.515625 -25.867188 11.25 -24.679688 10.09375 -23.140625 Z M 9.8125 -26.984375 C 11.15625 -28.648438 12.707031 -29.988281 14.46875 -31 C 16.238281 -32.007812 18.257812 -32.515625 20.53125 -32.515625 C 22.375 -32.515625 24.039062 -32.160156 25.53125 -31.453125 C 27.03125 -30.742188 28.304688 -29.703125 29.359375 -28.328125 C 30.410156 -26.953125 31.21875 -25.242188 31.78125 -23.203125 C 32.351562 -21.171875 32.640625 -18.828125 32.640625 -16.171875 C 32.640625 -13.816406 32.320312 -11.625 31.6875 -9.59375 C 31.0625 -7.570312 30.15625 -5.816406 28.96875 -4.328125 C 27.78125 -2.847656 26.328125 -1.679688 24.609375 -0.828125 C 22.898438 0.015625 20.972656 0.4375 18.828125 0.4375 C 16.867188 0.4375 15.191406 0.109375 13.796875 -0.546875 C 12.398438 -1.210938 11.164062 -2.132812 10.09375 -3.3125 L 10.09375 10.8125 L 4.453125 10.8125 L 4.453125 -31.9375 L 7.8125 -31.9375 C 8.613281 -31.9375 9.109375 -31.550781 9.296875 -30.78125 Z M 9.8125 -26.984375 "/></g></g></g><g fill="#002b80" fill-opacity="1"><g transform="translate(241.675777, 425.080444)"><g><path d="M 10.25 -46.453125 L 10.25 0 L 4.640625 0 L 4.640625 -46.453125 Z M 10.25 -46.453125 "/></g></g></g><g fill="#002b80" fill-opacity="1"><g transform="translate(256.558357, 425.080444)"><g><path d="M 17.90625 -32.453125 C 20.238281 -32.453125 22.335938 -32.0625 24.203125 -31.28125 C 26.078125 -30.5 27.675781 -29.394531 29 -27.96875 C 30.332031 -26.539062 31.347656 -24.8125 32.046875 -22.78125 C 32.753906 -20.75 33.109375 -18.484375 33.109375 -15.984375 C 33.109375 -13.460938 32.753906 -11.191406 32.046875 -9.171875 C 31.347656 -7.160156 30.332031 -5.4375 29 -4 C 27.675781 -2.570312 26.078125 -1.472656 24.203125 -0.703125 C 22.335938 0.0546875 20.238281 0.4375 17.90625 0.4375 C 15.550781 0.4375 13.429688 0.0546875 11.546875 -0.703125 C 9.671875 -1.472656 8.070312 -2.570312 6.75 -4 C 5.425781 -5.4375 4.410156 -7.160156 3.703125 -9.171875 C 3.003906 -11.191406 2.65625 -13.460938 2.65625 -15.984375 C 2.65625 -18.484375 3.003906 -20.75 3.703125 -22.78125 C 4.410156 -24.8125 5.425781 -26.539062 6.75 -27.96875 C 8.070312 -29.394531 9.671875 -30.5 11.546875 -31.28125 C 13.429688 -32.0625 15.550781 -32.453125 17.90625 -32.453125 Z M 17.90625 -3.9375 C 21.0625 -3.9375 23.414062 -4.992188 24.96875 -7.109375 C 26.53125 -9.222656 27.3125 -12.171875 27.3125 -15.953125 C 27.3125 -19.753906 26.53125 -22.71875 24.96875 -24.84375 C 23.414062 -26.96875 21.0625 -28.03125 17.90625 -28.03125 C 16.3125 -28.03125 14.921875 -27.753906 13.734375 -27.203125 C 12.546875 -26.660156 11.554688 -25.875 10.765625 -24.84375 C 9.972656 -23.8125 9.382812 -22.546875 9 -21.046875 C 8.613281 -19.546875 8.421875 -17.847656 8.421875 -15.953125 C 8.421875 -12.171875 9.203125 -9.222656 10.765625 -7.109375 C 12.328125 -4.992188 14.707031 -3.9375 17.90625 -3.9375 Z M 17.90625 -3.9375 "/></g></g></g><g fill="#002b80" fill-opacity="1"><g transform="translate(292.314397, 425.080444)"><g><path d="M 21.75 -14.375 C 19.164062 -14.289062 16.960938 -14.085938 15.140625 -13.765625 C 13.328125 -13.441406 11.847656 -13.015625 10.703125 -12.484375 C 9.554688 -11.960938 8.722656 -11.34375 8.203125 -10.625 C 7.691406 -9.90625 7.4375 -9.109375 7.4375 -8.234375 C 7.4375 -7.390625 7.570312 -6.660156 7.84375 -6.046875 C 8.125 -5.441406 8.5 -4.941406 8.96875 -4.546875 C 9.445312 -4.160156 10.003906 -3.878906 10.640625 -3.703125 C 11.285156 -3.523438 11.972656 -3.4375 12.703125 -3.4375 C 13.691406 -3.4375 14.597656 -3.535156 15.421875 -3.734375 C 16.242188 -3.929688 17.015625 -4.21875 17.734375 -4.59375 C 18.460938 -4.976562 19.15625 -5.429688 19.8125 -5.953125 C 20.476562 -6.484375 21.125 -7.082031 21.75 -7.75 Z M 3.625 -27.4375 C 5.394531 -29.132812 7.296875 -30.40625 9.328125 -31.25 C 11.367188 -32.09375 13.628906 -32.515625 16.109375 -32.515625 C 17.898438 -32.515625 19.488281 -32.21875 20.875 -31.625 C 22.257812 -31.039062 23.425781 -30.222656 24.375 -29.171875 C 25.320312 -28.117188 26.035156 -26.84375 26.515625 -25.34375 C 27.003906 -23.851562 27.25 -22.21875 27.25 -20.4375 L 27.25 0 L 24.75 0 C 24.207031 0 23.785156 -0.0859375 23.484375 -0.265625 C 23.191406 -0.441406 22.960938 -0.796875 22.796875 -1.328125 L 22.171875 -4.34375 C 21.328125 -3.570312 20.503906 -2.882812 19.703125 -2.28125 C 18.910156 -1.6875 18.070312 -1.179688 17.1875 -0.765625 C 16.300781 -0.359375 15.359375 -0.046875 14.359375 0.171875 C 13.359375 0.390625 12.25 0.5 11.03125 0.5 C 9.789062 0.5 8.625 0.328125 7.53125 -0.015625 C 6.4375 -0.359375 5.484375 -0.875 4.671875 -1.5625 C 3.867188 -2.257812 3.226562 -3.140625 2.75 -4.203125 C 2.28125 -5.265625 2.046875 -6.523438 2.046875 -7.984375 C 2.046875 -9.242188 2.390625 -10.457031 3.078125 -11.625 C 3.773438 -12.789062 4.898438 -13.820312 6.453125 -14.71875 C 8.015625 -15.625 10.046875 -16.363281 12.546875 -16.9375 C 15.046875 -17.519531 18.113281 -17.851562 21.75 -17.9375 L 21.75 -20.4375 C 21.75 -22.914062 21.210938 -24.789062 20.140625 -26.0625 C 19.078125 -27.332031 17.515625 -27.96875 15.453125 -27.96875 C 14.066406 -27.96875 12.90625 -27.789062 11.96875 -27.4375 C 11.03125 -27.09375 10.21875 -26.707031 9.53125 -26.28125 C 8.851562 -25.851562 8.265625 -25.460938 7.765625 -25.109375 C 7.273438 -24.765625 6.789062 -24.59375 6.3125 -24.59375 C 5.925781 -24.59375 5.597656 -24.691406 5.328125 -24.890625 C 5.054688 -25.085938 4.828125 -25.335938 4.640625 -25.640625 Z M 3.625 -27.4375 "/></g></g></g><g fill="#002b80" fill-opacity="1"><g transform="translate(323.656112, 425.080444)"><g><path d="M 25.25 -24.34375 C 24.207031 -25.75 23.070312 -26.726562 21.84375 -27.28125 C 20.625 -27.84375 19.257812 -28.125 17.75 -28.125 C 14.789062 -28.125 12.507812 -27.0625 10.90625 -24.9375 C 9.3125 -22.8125 8.515625 -19.785156 8.515625 -15.859375 C 8.515625 -13.773438 8.691406 -11.992188 9.046875 -10.515625 C 9.398438 -9.035156 9.925781 -7.816406 10.625 -6.859375 C 11.320312 -5.898438 12.171875 -5.195312 13.171875 -4.75 C 14.179688 -4.3125 15.328125 -4.09375 16.609375 -4.09375 C 18.460938 -4.09375 20.078125 -4.515625 21.453125 -5.359375 C 22.828125 -6.203125 24.09375 -7.390625 25.25 -8.921875 Z M 30.875 -46.453125 L 30.875 0 L 27.53125 0 C 26.726562 0 26.222656 -0.390625 26.015625 -1.171875 L 25.515625 -5.046875 C 24.140625 -3.398438 22.578125 -2.070312 20.828125 -1.0625 C 19.085938 -0.0625 17.070312 0.4375 14.78125 0.4375 C 12.957031 0.4375 11.296875 0.0859375 9.796875 -0.609375 C 8.304688 -1.316406 7.035156 -2.351562 5.984375 -3.71875 C 4.941406 -5.082031 4.132812 -6.785156 3.5625 -8.828125 C 3 -10.867188 2.71875 -13.210938 2.71875 -15.859375 C 2.71875 -18.210938 3.03125 -20.40625 3.65625 -22.4375 C 4.289062 -24.46875 5.195312 -26.226562 6.375 -27.71875 C 7.550781 -29.207031 8.992188 -30.378906 10.703125 -31.234375 C 12.421875 -32.085938 14.347656 -32.515625 16.484375 -32.515625 C 18.441406 -32.515625 20.117188 -32.179688 21.515625 -31.515625 C 22.910156 -30.847656 24.15625 -29.925781 25.25 -28.75 L 25.25 -46.453125 Z M 30.875 -46.453125 "/></g></g></g><g fill="#002b80" fill-opacity="1"><g transform="translate(358.97073, 425.080444)"><g/></g></g><g fill="#002b80" fill-opacity="1"><g transform="translate(375.11455, 425.080444)"><g><path d="M 37.484375 -9.328125 C 37.828125 -9.328125 38.125 -9.191406 38.375 -8.921875 L 40.796875 -6.3125 C 38.953125 -4.164062 36.707031 -2.492188 34.0625 -1.296875 C 31.425781 -0.0976562 28.238281 0.5 24.5 0.5 C 21.257812 0.5 18.316406 -0.0625 15.671875 -1.1875 C 13.023438 -2.3125 10.765625 -3.882812 8.890625 -5.90625 C 7.015625 -7.9375 5.5625 -10.367188 4.53125 -13.203125 C 3.507812 -16.046875 3 -19.171875 3 -22.578125 C 3 -25.984375 3.535156 -29.101562 4.609375 -31.9375 C 5.679688 -34.78125 7.1875 -37.21875 9.125 -39.25 C 11.070312 -41.289062 13.398438 -42.875 16.109375 -44 C 18.828125 -45.125 21.820312 -45.6875 25.09375 -45.6875 C 28.3125 -45.6875 31.148438 -45.171875 33.609375 -44.140625 C 36.066406 -43.109375 38.234375 -41.710938 40.109375 -39.953125 L 38.09375 -37.140625 C 37.96875 -36.929688 37.800781 -36.757812 37.59375 -36.625 C 37.394531 -36.488281 37.128906 -36.421875 36.796875 -36.421875 C 36.421875 -36.421875 35.957031 -36.625 35.40625 -37.03125 C 34.863281 -37.4375 34.148438 -37.890625 33.265625 -38.390625 C 32.378906 -38.898438 31.273438 -39.359375 29.953125 -39.765625 C 28.628906 -40.179688 27 -40.390625 25.0625 -40.390625 C 22.726562 -40.390625 20.59375 -39.984375 18.65625 -39.171875 C 16.726562 -38.367188 15.066406 -37.195312 13.671875 -35.65625 C 12.273438 -34.125 11.1875 -32.253906 10.40625 -30.046875 C 9.625 -27.835938 9.234375 -25.347656 9.234375 -22.578125 C 9.234375 -19.753906 9.640625 -17.238281 10.453125 -15.03125 C 11.265625 -12.832031 12.367188 -10.96875 13.765625 -9.4375 C 15.160156 -7.914062 16.804688 -6.753906 18.703125 -5.953125 C 20.609375 -5.160156 22.664062 -4.765625 24.875 -4.765625 C 26.21875 -4.765625 27.429688 -4.84375 28.515625 -5 C 29.597656 -5.15625 30.597656 -5.398438 31.515625 -5.734375 C 32.429688 -6.078125 33.28125 -6.503906 34.0625 -7.015625 C 34.851562 -7.523438 35.640625 -8.140625 36.421875 -8.859375 C 36.773438 -9.171875 37.128906 -9.328125 37.484375 -9.328125 Z M 37.484375 -9.328125 "/></g></g></g><g fill="#002b80" fill-opacity="1"><g transform="translate(417.239838, 425.080444)"><g><path d="M 28.875 -38.125 C 28.6875 -37.800781 28.484375 -37.5625 28.265625 -37.40625 C 28.046875 -37.25 27.78125 -37.171875 27.46875 -37.171875 C 27.101562 -37.171875 26.679688 -37.347656 26.203125 -37.703125 C 25.722656 -38.066406 25.117188 -38.460938 24.390625 -38.890625 C 23.660156 -39.328125 22.785156 -39.722656 21.765625 -40.078125 C 20.753906 -40.429688 19.519531 -40.609375 18.0625 -40.609375 C 16.695312 -40.609375 15.492188 -40.425781 14.453125 -40.0625 C 13.410156 -39.695312 12.535156 -39.195312 11.828125 -38.5625 C 11.128906 -37.925781 10.601562 -37.179688 10.25 -36.328125 C 9.894531 -35.484375 9.71875 -34.566406 9.71875 -33.578125 C 9.71875 -32.316406 10.023438 -31.269531 10.640625 -30.4375 C 11.265625 -29.613281 12.082031 -28.90625 13.09375 -28.3125 C 14.113281 -27.726562 15.269531 -27.21875 16.5625 -26.78125 C 17.863281 -26.351562 19.191406 -25.90625 20.546875 -25.4375 C 21.898438 -24.976562 23.222656 -24.457031 24.515625 -23.875 C 25.804688 -23.300781 26.960938 -22.570312 27.984375 -21.6875 C 29.003906 -20.8125 29.820312 -19.726562 30.4375 -18.4375 C 31.0625 -17.15625 31.375 -15.582031 31.375 -13.71875 C 31.375 -11.738281 31.035156 -9.878906 30.359375 -8.140625 C 29.691406 -6.410156 28.710938 -4.90625 27.421875 -3.625 C 26.128906 -2.34375 24.539062 -1.332031 22.65625 -0.59375 C 20.769531 0.132812 18.628906 0.5 16.234375 0.5 C 13.296875 0.5 10.628906 -0.03125 8.234375 -1.09375 C 5.835938 -2.15625 3.785156 -3.585938 2.078125 -5.390625 L 3.84375 -8.296875 C 4.007812 -8.523438 4.210938 -8.71875 4.453125 -8.875 C 4.703125 -9.03125 4.972656 -9.109375 5.265625 -9.109375 C 5.535156 -9.109375 5.84375 -9 6.1875 -8.78125 C 6.539062 -8.5625 6.9375 -8.28125 7.375 -7.9375 C 7.820312 -7.601562 8.328125 -7.238281 8.890625 -6.84375 C 9.460938 -6.445312 10.109375 -6.078125 10.828125 -5.734375 C 11.554688 -5.398438 12.378906 -5.125 13.296875 -4.90625 C 14.222656 -4.6875 15.265625 -4.578125 16.421875 -4.578125 C 17.878906 -4.578125 19.175781 -4.773438 20.3125 -5.171875 C 21.445312 -5.566406 22.40625 -6.128906 23.1875 -6.859375 C 23.976562 -7.585938 24.582031 -8.453125 25 -9.453125 C 25.425781 -10.460938 25.640625 -11.585938 25.640625 -12.828125 C 25.640625 -14.191406 25.328125 -15.3125 24.703125 -16.1875 C 24.085938 -17.0625 23.273438 -17.789062 22.265625 -18.375 C 21.253906 -18.96875 20.097656 -19.46875 18.796875 -19.875 C 17.492188 -20.289062 16.164062 -20.710938 14.8125 -21.140625 C 13.46875 -21.566406 12.144531 -22.0625 10.84375 -22.625 C 9.539062 -23.195312 8.382812 -23.9375 7.375 -24.84375 C 6.363281 -25.75 5.546875 -26.878906 4.921875 -28.234375 C 4.304688 -29.585938 4 -31.265625 4 -33.265625 C 4 -34.859375 4.304688 -36.398438 4.921875 -37.890625 C 5.546875 -39.390625 6.453125 -40.71875 7.640625 -41.875 C 8.828125 -43.03125 10.285156 -43.953125 12.015625 -44.640625 C 13.753906 -45.335938 15.75 -45.6875 18 -45.6875 C 20.519531 -45.6875 22.816406 -45.285156 24.890625 -44.484375 C 26.960938 -43.691406 28.785156 -42.535156 30.359375 -41.015625 Z M 28.875 -38.125 "/></g></g></g><g fill="#002b80" fill-opacity="1"><g transform="translate(451.45085, 425.080444)"><g><path d="M 42.5 -45.1875 L 24.09375 0 L 18.609375 0 L 0.1875 -45.1875 L 5.078125 -45.1875 C 5.617188 -45.1875 6.054688 -45.046875 6.390625 -44.765625 C 6.734375 -44.492188 6.988281 -44.148438 7.15625 -43.734375 L 19.890625 -11.859375 C 20.171875 -11.140625 20.441406 -10.359375 20.703125 -9.515625 C 20.960938 -8.679688 21.195312 -7.800781 21.40625 -6.875 C 21.613281 -7.800781 21.832031 -8.679688 22.0625 -9.515625 C 22.300781 -10.359375 22.554688 -11.140625 22.828125 -11.859375 L 35.53125 -43.734375 C 35.65625 -44.085938 35.898438 -44.414062 36.265625 -44.71875 C 36.640625 -45.03125 37.085938 -45.1875 37.609375 -45.1875 Z M 42.5 -45.1875 "/></g></g></g><g fill="#002b80" fill-opacity="1"><g transform="translate(494.143692, 425.080444)"><g/></g></g><g fill="#002b80" fill-opacity="1"><g transform="translate(510.287511, 425.080444)"><g><path d="M 14.25 0.5 C 11.726562 0.5 9.789062 -0.203125 8.4375 -1.609375 C 7.082031 -3.015625 6.40625 -5.039062 6.40625 -7.6875 L 6.40625 -27.25 L 2.546875 -27.25 C 2.210938 -27.25 1.929688 -27.347656 1.703125 -27.546875 C 1.472656 -27.742188 1.359375 -28.050781 1.359375 -28.46875 L 1.359375 -30.71875 L 6.59375 -31.375 L 7.890625 -41.25 C 7.953125 -41.5625 8.09375 -41.816406 8.3125 -42.015625 C 8.53125 -42.210938 8.816406 -42.3125 9.171875 -42.3125 L 12.015625 -42.3125 L 12.015625 -31.3125 L 21.25 -31.3125 L 21.25 -27.25 L 12.015625 -27.25 L 12.015625 -8.078125 C 12.015625 -6.722656 12.335938 -5.71875 12.984375 -5.0625 C 13.640625 -4.414062 14.484375 -4.09375 15.515625 -4.09375 C 16.097656 -4.09375 16.601562 -4.171875 17.03125 -4.328125 C 17.46875 -4.492188 17.84375 -4.671875 18.15625 -4.859375 C 18.476562 -5.046875 18.75 -5.21875 18.96875 -5.375 C 19.1875 -5.53125 19.378906 -5.609375 19.546875 -5.609375 C 19.835938 -5.609375 20.101562 -5.429688 20.34375 -5.078125 L 21.984375 -2.390625 C 21.015625 -1.492188 19.84375 -0.785156 18.46875 -0.265625 C 17.101562 0.242188 15.695312 0.5 14.25 0.5 Z M 14.25 0.5 "/></g></g></g><g fill="#002b80" fill-opacity="1"><g transform="translate(532.895159, 425.080444)"><g><path d="M 17.90625 -32.453125 C 20.238281 -32.453125 22.335938 -32.0625 24.203125 -31.28125 C 26.078125 -30.5 27.675781 -29.394531 29 -27.96875 C 30.332031 -26.539062 31.347656 -24.8125 32.046875 -22.78125 C 32.753906 -20.75 33.109375 -18.484375 33.109375 -15.984375 C 33.109375 -13.460938 32.753906 -11.191406 32.046875 -9.171875 C 31.347656 -7.160156 30.332031 -5.4375 29 -4 C 27.675781 -2.570312 26.078125 -1.472656 24.203125 -0.703125 C 22.335938 0.0546875 20.238281 0.4375 17.90625 0.4375 C 15.550781 0.4375 13.429688 0.0546875 11.546875 -0.703125 C 9.671875 -1.472656 8.070312 -2.570312 6.75 -4 C 5.425781 -5.4375 4.410156 -7.160156 3.703125 -9.171875 C 3.003906 -11.191406 2.65625 -13.460938 2.65625 -15.984375 C 2.65625 -18.484375 3.003906 -20.75 3.703125 -22.78125 C 4.410156 -24.8125 5.425781 -26.539062 6.75 -27.96875 C 8.070312 -29.394531 9.671875 -30.5 11.546875 -31.28125 C 13.429688 -32.0625 15.550781 -32.453125 17.90625 -32.453125 Z M 17.90625 -3.9375 C 21.0625 -3.9375 23.414062 -4.992188 24.96875 -7.109375 C 26.53125 -9.222656 27.3125 -12.171875 27.3125 -15.953125 C 27.3125 -19.753906 26.53125 -22.71875 24.96875 -24.84375 C 23.414062 -26.96875 21.0625 -28.03125 17.90625 -28.03125 C 16.3125 -28.03125 14.921875 -27.753906 13.734375 -27.203125 C 12.546875 -26.660156 11.554688 -25.875 10.765625 -24.84375 C 9.972656 -23.8125 9.382812 -22.546875 9 -21.046875 C 8.613281 -19.546875 8.421875 -17.847656 8.421875 -15.953125 C 8.421875 -12.171875 9.203125 -9.222656 10.765625 -7.109375 C 12.328125 -4.992188 14.707031 -3.9375 17.90625 -3.9375 Z M 17.90625 -3.9375 "/></g></g></g><g fill="#002b80" fill-opacity="1"><g transform="translate(568.651198, 425.080444)"><g/></g></g><g fill="#002b80" fill-opacity="1"><g transform="translate(584.795018, 425.080444)"><g><path d="M 28.875 -38.125 C 28.6875 -37.800781 28.484375 -37.5625 28.265625 -37.40625 C 28.046875 -37.25 27.78125 -37.171875 27.46875 -37.171875 C 27.101562 -37.171875 26.679688 -37.347656 26.203125 -37.703125 C 25.722656 -38.066406 25.117188 -38.460938 24.390625 -38.890625 C 23.660156 -39.328125 22.785156 -39.722656 21.765625 -40.078125 C 20.753906 -40.429688 19.519531 -40.609375 18.0625 -40.609375 C 16.695312 -40.609375 15.492188 -40.425781 14.453125 -40.0625 C 13.410156 -39.695312 12.535156 -39.195312 11.828125 -38.5625 C 11.128906 -37.925781 10.601562 -37.179688 10.25 -36.328125 C 9.894531 -35.484375 9.71875 -34.566406 9.71875 -33.578125 C 9.71875 -32.316406 10.023438 -31.269531 10.640625 -30.4375 C 11.265625 -29.613281 12.082031 -28.90625 13.09375 -28.3125 C 14.113281 -27.726562 15.269531 -27.21875 16.5625 -26.78125 C 17.863281 -26.351562 19.191406 -25.90625 20.546875 -25.4375 C 21.898438 -24.976562 23.222656 -24.457031 24.515625 -23.875 C 25.804688 -23.300781 26.960938 -22.570312 27.984375 -21.6875 C 29.003906 -20.8125 29.820312 -19.726562 30.4375 -18.4375 C 31.0625 -17.15625 31.375 -15.582031 31.375 -13.71875 C 31.375 -11.738281 31.035156 -9.878906 30.359375 -8.140625 C 29.691406 -6.410156 28.710938 -4.90625 27.421875 -3.625 C 26.128906 -2.34375 24.539062 -1.332031 22.65625 -0.59375 C 20.769531 0.132812 18.628906 0.5 16.234375 0.5 C 13.296875 0.5 10.628906 -0.03125 8.234375 -1.09375 C 5.835938 -2.15625 3.785156 -3.585938 2.078125 -5.390625 L 3.84375 -8.296875 C 4.007812 -8.523438 4.210938 -8.71875 4.453125 -8.875 C 4.703125 -9.03125 4.972656 -9.109375 5.265625 -9.109375 C 5.535156 -9.109375 5.84375 -9 6.1875 -8.78125 C 6.539062 -8.5625 6.9375 -8.28125 7.375 -7.9375 C 7.820312 -7.601562 8.328125 -7.238281 8.890625 -6.84375 C 9.460938 -6.445312 10.109375 -6.078125 10.828125 -5.734375 C 11.554688 -5.398438 12.378906 -5.125 13.296875 -4.90625 C 14.222656 -4.6875 15.265625 -4.578125 16.421875 -4.578125 C 17.878906 -4.578125 19.175781 -4.773438 20.3125 -5.171875 C 21.445312 -5.566406 22.40625 -6.128906 23.1875 -6.859375 C 23.976562 -7.585938 24.582031 -8.453125 25 -9.453125 C 25.425781 -10.460938 25.640625 -11.585938 25.640625 -12.828125 C 25.640625 -14.191406 25.328125 -15.3125 24.703125 -16.1875 C 24.085938 -17.0625 23.273438 -17.789062 22.265625 -18.375 C 21.253906 -18.96875 20.097656 -19.46875 18.796875 -19.875 C 17.492188 -20.289062 16.164062 -20.710938 14.8125 -21.140625 C 13.46875 -21.566406 12.144531 -22.0625 10.84375 -22.625 C 9.539062 -23.195312 8.382812 -23.9375 7.375 -24.84375 C 6.363281 -25.75 5.546875 -26.878906 4.921875 -28.234375 C 4.304688 -29.585938 4 -31.265625 4 -33.265625 C 4 -34.859375 4.304688 -36.398438 4.921875 -37.890625 C 5.546875 -39.390625 6.453125 -40.71875 7.640625 -41.875 C 8.828125 -43.03125 10.285156 -43.953125 12.015625 -44.640625 C 13.753906 -45.335938 15.75 -45.6875 18 -45.6875 C 20.519531 -45.6875 22.816406 -45.285156 24.890625 -44.484375 C 26.960938 -43.691406 28.785156 -42.535156 30.359375 -41.015625 Z M 28.875 -38.125 "/></g></g></g><g fill="#002b80" fill-opacity="1"><g transform="translate(619.006029, 425.080444)"><g><path d="M 14.25 0.5 C 11.726562 0.5 9.789062 -0.203125 8.4375 -1.609375 C 7.082031 -3.015625 6.40625 -5.039062 6.40625 -7.6875 L 6.40625 -27.25 L 2.546875 -27.25 C 2.210938 -27.25 1.929688 -27.347656 1.703125 -27.546875 C 1.472656 -27.742188 1.359375 -28.050781 1.359375 -28.46875 L 1.359375 -30.71875 L 6.59375 -31.375 L 7.890625 -41.25 C 7.953125 -41.5625 8.09375 -41.816406 8.3125 -42.015625 C 8.53125 -42.210938 8.816406 -42.3125 9.171875 -42.3125 L 12.015625 -42.3125 L 12.015625 -31.3125 L 21.25 -31.3125 L 21.25 -27.25 L 12.015625 -27.25 L 12.015625 -8.078125 C 12.015625 -6.722656 12.335938 -5.71875 12.984375 -5.0625 C 13.640625 -4.414062 14.484375 -4.09375 15.515625 -4.09375 C 16.097656 -4.09375 16.601562 -4.171875 17.03125 -4.328125 C 17.46875 -4.492188 17.84375 -4.671875 18.15625 -4.859375 C 18.476562 -5.046875 18.75 -5.21875 18.96875 -5.375 C 19.1875 -5.53125 19.378906 -5.609375 19.546875 -5.609375 C 19.835938 -5.609375 20.101562 -5.429688 20.34375 -5.078125 L 21.984375 -2.390625 C 21.015625 -1.492188 19.84375 -0.785156 18.46875 -0.265625 C 17.101562 0.242188 15.695312 0.5 14.25 0.5 Z M 14.25 0.5 "/></g></g></g><g fill="#002b80" fill-opacity="1"><g transform="translate(641.613677, 425.080444)"><g><path d="M 21.75 -14.375 C 19.164062 -14.289062 16.960938 -14.085938 15.140625 -13.765625 C 13.328125 -13.441406 11.847656 -13.015625 10.703125 -12.484375 C 9.554688 -11.960938 8.722656 -11.34375 8.203125 -10.625 C 7.691406 -9.90625 7.4375 -9.109375 7.4375 -8.234375 C 7.4375 -7.390625 7.570312 -6.660156 7.84375 -6.046875 C 8.125 -5.441406 8.5 -4.941406 8.96875 -4.546875 C 9.445312 -4.160156 10.003906 -3.878906 10.640625 -3.703125 C 11.285156 -3.523438 11.972656 -3.4375 12.703125 -3.4375 C 13.691406 -3.4375 14.597656 -3.535156 15.421875 -3.734375 C 16.242188 -3.929688 17.015625 -4.21875 17.734375 -4.59375 C 18.460938 -4.976562 19.15625 -5.429688 19.8125 -5.953125 C 20.476562 -6.484375 21.125 -7.082031 21.75 -7.75 Z M 3.625 -27.4375 C 5.394531 -29.132812 7.296875 -30.40625 9.328125 -31.25 C 11.367188 -32.09375 13.628906 -32.515625 16.109375 -32.515625 C 17.898438 -32.515625 19.488281 -32.21875 20.875 -31.625 C 22.257812 -31.039062 23.425781 -30.222656 24.375 -29.171875 C 25.320312 -28.117188 26.035156 -26.84375 26.515625 -25.34375 C 27.003906 -23.851562 27.25 -22.21875 27.25 -20.4375 L 27.25 0 L 24.75 0 C 24.207031 0 23.785156 -0.0859375 23.484375 -0.265625 C 23.191406 -0.441406 22.960938 -0.796875 22.796875 -1.328125 L 22.171875 -4.34375 C 21.328125 -3.570312 20.503906 -2.882812 19.703125 -2.28125 C 18.910156 -1.6875 18.070312 -1.179688 17.1875 -0.765625 C 16.300781 -0.359375 15.359375 -0.046875 14.359375 0.171875 C 13.359375 0.390625 12.25 0.5 11.03125 0.5 C 9.789062 0.5 8.625 0.328125 7.53125 -0.015625 C 6.4375 -0.359375 5.484375 -0.875 4.671875 -1.5625 C 3.867188 -2.257812 3.226562 -3.140625 2.75 -4.203125 C 2.28125 -5.265625 2.046875 -6.523438 2.046875 -7.984375 C 2.046875 -9.242188 2.390625 -10.457031 3.078125 -11.625 C 3.773438 -12.789062 4.898438 -13.820312 6.453125 -14.71875 C 8.015625 -15.625 10.046875 -16.363281 12.546875 -16.9375 C 15.046875 -17.519531 18.113281 -17.851562 21.75 -17.9375 L 21.75 -20.4375 C 21.75 -22.914062 21.210938 -24.789062 20.140625 -26.0625 C 19.078125 -27.332031 17.515625 -27.96875 15.453125 -27.96875 C 14.066406 -27.96875 12.90625 -27.789062 11.96875 -27.4375 C 11.03125 -27.09375 10.21875 -26.707031 9.53125 -26.28125 C 8.851562 -25.851562 8.265625 -25.460938 7.765625 -25.109375 C 7.273438 -24.765625 6.789062 -24.59375 6.3125 -24.59375 C 5.925781 -24.59375 5.597656 -24.691406 5.328125 -24.890625 C 5.054688 -25.085938 4.828125 -25.335938 4.640625 -25.640625 Z M 3.625 -27.4375 "/></g></g></g><g fill="#002b80" fill-opacity="1"><g transform="translate(672.955419, 425.080444)"><g><path d="M 9.78125 -25.546875 C 10.78125 -27.722656 12.015625 -29.425781 13.484375 -30.65625 C 14.960938 -31.894531 16.765625 -32.515625 18.890625 -32.515625 C 19.554688 -32.515625 20.195312 -32.4375 20.8125 -32.28125 C 21.4375 -32.132812 21.992188 -31.90625 22.484375 -31.59375 L 22.078125 -27.40625 C 21.941406 -26.875 21.625 -26.609375 21.125 -26.609375 C 20.832031 -26.609375 20.398438 -26.671875 19.828125 -26.796875 C 19.265625 -26.921875 18.625 -26.984375 17.90625 -26.984375 C 16.894531 -26.984375 15.992188 -26.835938 15.203125 -26.546875 C 14.421875 -26.253906 13.71875 -25.816406 13.09375 -25.234375 C 12.476562 -24.660156 11.921875 -23.945312 11.421875 -23.09375 C 10.929688 -22.238281 10.488281 -21.269531 10.09375 -20.1875 L 10.09375 0 L 4.453125 0 L 4.453125 -31.9375 L 7.65625 -31.9375 C 8.269531 -31.9375 8.691406 -31.820312 8.921875 -31.59375 C 9.148438 -31.363281 9.304688 -30.960938 9.390625 -30.390625 Z M 9.78125 -25.546875 "/></g></g></g><g fill="#002b80" fill-opacity="1"><g transform="translate(695.909883, 425.080444)"><g><path d="M 14.25 0.5 C 11.726562 0.5 9.789062 -0.203125 8.4375 -1.609375 C 7.082031 -3.015625 6.40625 -5.039062 6.40625 -7.6875 L 6.40625 -27.25 L 2.546875 -27.25 C 2.210938 -27.25 1.929688 -27.347656 1.703125 -27.546875 C 1.472656 -27.742188 1.359375 -28.050781 1.359375 -28.46875 L 1.359375 -30.71875 L 6.59375 -31.375 L 7.890625 -41.25 C 7.953125 -41.5625 8.09375 -41.816406 8.3125 -42.015625 C 8.53125 -42.210938 8.816406 -42.3125 9.171875 -42.3125 L 12.015625 -42.3125 L 12.015625 -31.3125 L 21.25 -31.3125 L 21.25 -27.25 L 12.015625 -27.25 L 12.015625 -8.078125 C 12.015625 -6.722656 12.335938 -5.71875 12.984375 -5.0625 C 13.640625 -4.414062 14.484375 -4.09375 15.515625 -4.09375 C 16.097656 -4.09375 16.601562 -4.171875 17.03125 -4.328125 C 17.46875 -4.492188 17.84375 -4.671875 18.15625 -4.859375 C 18.476562 -5.046875 18.75 -5.21875 18.96875 -5.375 C 19.1875 -5.53125 19.378906 -5.609375 19.546875 -5.609375 C 19.835938 -5.609375 20.101562 -5.429688 20.34375 -5.078125 L 21.984375 -2.390625 C 21.015625 -1.492188 19.84375 -0.785156 18.46875 -0.265625 C 17.101562 0.242188 15.695312 0.5 14.25 0.5 Z M 14.25 0.5 "/></g></g></g><g fill="#002b80" fill-opacity="1"><g transform="translate(718.517531, 425.080444)"><g/></g></g><g fill="#002b80" fill-opacity="1"><g transform="translate(734.66135, 425.080444)"><g><path d="M 36.328125 -40.046875 L 21.6875 -40.046875 L 21.6875 0 L 15.609375 0 L 15.609375 -40.046875 L 0.953125 -40.046875 L 0.953125 -45.1875 L 36.328125 -45.1875 Z M 36.328125 -40.046875 "/></g></g></g><g fill="#002b80" fill-opacity="1"><g transform="translate(771.899341, 425.080444)"><g><path d="M 21.75 -14.375 C 19.164062 -14.289062 16.960938 -14.085938 15.140625 -13.765625 C 13.328125 -13.441406 11.847656 -13.015625 10.703125 -12.484375 C 9.554688 -11.960938 8.722656 -11.34375 8.203125 -10.625 C 7.691406 -9.90625 7.4375 -9.109375 7.4375 -8.234375 C 7.4375 -7.390625 7.570312 -6.660156 7.84375 -6.046875 C 8.125 -5.441406 8.5 -4.941406 8.96875 -4.546875 C 9.445312 -4.160156 10.003906 -3.878906 10.640625 -3.703125 C 11.285156 -3.523438 11.972656 -3.4375 12.703125 -3.4375 C 13.691406 -3.4375 14.597656 -3.535156 15.421875 -3.734375 C 16.242188 -3.929688 17.015625 -4.21875 17.734375 -4.59375 C 18.460938 -4.976562 19.15625 -5.429688 19.8125 -5.953125 C 20.476562 -6.484375 21.125 -7.082031 21.75 -7.75 Z M 3.625 -27.4375 C 5.394531 -29.132812 7.296875 -30.40625 9.328125 -31.25 C 11.367188 -32.09375 13.628906 -32.515625 16.109375 -32.515625 C 17.898438 -32.515625 19.488281 -32.21875 20.875 -31.625 C 22.257812 -31.039062 23.425781 -30.222656 24.375 -29.171875 C 25.320312 -28.117188 26.035156 -26.84375 26.515625 -25.34375 C 27.003906 -23.851562 27.25 -22.21875 27.25 -20.4375 L 27.25 0 L 24.75 0 C 24.207031 0 23.785156 -0.0859375 23.484375 -0.265625 C 23.191406 -0.441406 22.960938 -0.796875 22.796875 -1.328125 L 22.171875 -4.34375 C 21.328125 -3.570312 20.503906 -2.882812 19.703125 -2.28125 C 18.910156 -1.6875 18.070312 -1.179688 17.1875 -0.765625 C 16.300781 -0.359375 15.359375 -0.046875 14.359375 0.171875 C 13.359375 0.390625 12.25 0.5 11.03125 0.5 C 9.789062 0.5 8.625 0.328125 7.53125 -0.015625 C 6.4375 -0.359375 5.484375 -0.875 4.671875 -1.5625 C 3.867188 -2.257812 3.226562 -3.140625 2.75 -4.203125 C 2.28125 -5.265625 2.046875 -6.523438 2.046875 -7.984375 C 2.046875 -9.242188 2.390625 -10.457031 3.078125 -11.625 C 3.773438 -12.789062 4.898438 -13.820312 6.453125 -14.71875 C 8.015625 -15.625 10.046875 -16.363281 12.546875 -16.9375 C 15.046875 -17.519531 18.113281 -17.851562 21.75 -17.9375 L 21.75 -20.4375 C 21.75 -22.914062 21.210938 -24.789062 20.140625 -26.0625 C 19.078125 -27.332031 17.515625 -27.96875 15.453125 -27.96875 C 14.066406 -27.96875 12.90625 -27.789062 11.96875 -27.4375 C 11.03125 -27.09375 10.21875 -26.707031 9.53125 -26.28125 C 8.851562 -25.851562 8.265625 -25.460938 7.765625 -25.109375 C 7.273438 -24.765625 6.789062 -24.59375 6.3125 -24.59375 C 5.925781 -24.59375 5.597656 -24.691406 5.328125 -24.890625 C 5.054688 -25.085938 4.828125 -25.335938 4.640625 -25.640625 Z M 3.625 -27.4375 "/></g></g></g><g fill="#002b80" fill-opacity="1"><g transform="translate(803.241031, 425.080444)"><g><path d="M 23.046875 -26.671875 C 22.796875 -26.210938 22.40625 -25.984375 21.875 -25.984375 C 21.5625 -25.984375 21.207031 -26.097656 20.8125 -26.328125 C 20.414062 -26.554688 19.925781 -26.8125 19.34375 -27.09375 C 18.769531 -27.382812 18.082031 -27.648438 17.28125 -27.890625 C 16.476562 -28.128906 15.53125 -28.25 14.4375 -28.25 C 13.488281 -28.25 12.632812 -28.128906 11.875 -27.890625 C 11.125 -27.648438 10.476562 -27.316406 9.9375 -26.890625 C 9.40625 -26.472656 9 -25.984375 8.71875 -25.421875 C 8.4375 -24.867188 8.296875 -24.265625 8.296875 -23.609375 C 8.296875 -22.796875 8.53125 -22.113281 9 -21.5625 C 9.476562 -21.019531 10.101562 -20.546875 10.875 -20.140625 C 11.65625 -19.742188 12.539062 -19.394531 13.53125 -19.09375 C 14.519531 -18.789062 15.53125 -18.460938 16.5625 -18.109375 C 17.601562 -17.765625 18.617188 -17.378906 19.609375 -16.953125 C 20.597656 -16.535156 21.476562 -16.007812 22.25 -15.375 C 23.03125 -14.75 23.65625 -13.976562 24.125 -13.0625 C 24.601562 -12.15625 24.84375 -11.0625 24.84375 -9.78125 C 24.84375 -8.300781 24.578125 -6.9375 24.046875 -5.6875 C 23.523438 -4.4375 22.75 -3.351562 21.71875 -2.4375 C 20.695312 -1.53125 19.4375 -0.8125 17.9375 -0.28125 C 16.445312 0.238281 14.722656 0.5 12.765625 0.5 C 10.535156 0.5 8.515625 0.140625 6.703125 -0.578125 C 4.898438 -1.304688 3.367188 -2.238281 2.109375 -3.375 L 3.4375 -5.515625 C 3.601562 -5.785156 3.800781 -5.992188 4.03125 -6.140625 C 4.269531 -6.296875 4.566406 -6.375 4.921875 -6.375 C 5.296875 -6.375 5.691406 -6.222656 6.109375 -5.921875 C 6.535156 -5.628906 7.046875 -5.304688 7.640625 -4.953125 C 8.242188 -4.597656 8.972656 -4.269531 9.828125 -3.96875 C 10.691406 -3.675781 11.765625 -3.53125 13.046875 -3.53125 C 14.140625 -3.53125 15.097656 -3.671875 15.921875 -3.953125 C 16.742188 -4.242188 17.425781 -4.628906 17.96875 -5.109375 C 18.519531 -5.585938 18.925781 -6.140625 19.1875 -6.765625 C 19.445312 -7.398438 19.578125 -8.078125 19.578125 -8.796875 C 19.578125 -9.679688 19.335938 -10.410156 18.859375 -10.984375 C 18.390625 -11.566406 17.765625 -12.0625 16.984375 -12.46875 C 16.210938 -12.875 15.328125 -13.226562 14.328125 -13.53125 C 13.328125 -13.84375 12.304688 -14.164062 11.265625 -14.5 C 10.234375 -14.84375 9.21875 -15.226562 8.21875 -15.65625 C 7.21875 -16.082031 6.328125 -16.617188 5.546875 -17.265625 C 4.773438 -17.921875 4.148438 -18.726562 3.671875 -19.6875 C 3.203125 -20.644531 2.96875 -21.804688 2.96875 -23.171875 C 2.96875 -24.390625 3.21875 -25.5625 3.71875 -26.6875 C 4.226562 -27.8125 4.960938 -28.800781 5.921875 -29.65625 C 6.890625 -30.507812 8.078125 -31.1875 9.484375 -31.6875 C 10.898438 -32.195312 12.507812 -32.453125 14.3125 -32.453125 C 16.414062 -32.453125 18.300781 -32.117188 19.96875 -31.453125 C 21.644531 -30.785156 23.09375 -29.875 24.3125 -28.71875 Z M 23.046875 -26.671875 "/></g></g></g><g fill="#002b80" fill-opacity="1"><g transform="translate(830.546818, 425.080444)"><g><path d="M 10.09375 -46.453125 L 10.09375 -19.109375 L 11.546875 -19.109375 C 11.960938 -19.109375 12.3125 -19.164062 12.59375 -19.28125 C 12.875 -19.394531 13.175781 -19.628906 13.5 -19.984375 L 23.578125 -30.8125 C 23.878906 -31.164062 24.191406 -31.441406 24.515625 -31.640625 C 24.835938 -31.835938 25.273438 -31.9375 25.828125 -31.9375 L 30.90625 -31.9375 L 19.140625 -19.421875 C 18.566406 -18.703125 17.957031 -18.144531 17.3125 -17.75 C 17.6875 -17.5 18.023438 -17.207031 18.328125 -16.875 C 18.640625 -16.550781 18.929688 -16.179688 19.203125 -15.765625 L 31.6875 0 L 26.671875 0 C 26.191406 0 25.773438 -0.078125 25.421875 -0.234375 C 25.078125 -0.390625 24.78125 -0.679688 24.53125 -1.109375 L 14.03125 -14.1875 C 13.71875 -14.625 13.40625 -14.910156 13.09375 -15.046875 C 12.789062 -15.191406 12.328125 -15.265625 11.703125 -15.265625 L 10.09375 -15.265625 L 10.09375 0 L 4.453125 0 L 4.453125 -46.453125 Z M 10.09375 -46.453125 "/></g></g></g><g clip-path="url(#1bea62d2dc)"><g clip-path="url(#0169a604eb)"><path fill="#025cff" d="M 1323.492188 336.8125 L 1323.492188 473.1875 L 964.96875 473.1875 L 964.96875 336.8125 Z M 1323.492188 336.8125 " fill-opacity="1" fill-rule="nonzero"/></g></g><g clip-path="url(#36ef9ccbb0)"><path fill="#ffffff" d="M 1087.203125 412.472656 L 1087.203125 422.113281 C 1087.203125 422.640625 1087.148438 423.164062 1087.046875 423.679688 C 1086.945312 424.199219 1086.789062 424.699219 1086.589844 425.1875 C 1086.386719 425.675781 1086.140625 426.136719 1085.847656 426.574219 C 1085.554688 427.015625 1085.21875 427.417969 1084.847656 427.792969 C 1084.472656 428.164062 1084.070312 428.5 1083.628906 428.792969 C 1083.191406 429.085938 1082.730469 429.332031 1082.242188 429.535156 C 1081.753906 429.734375 1081.253906 429.886719 1080.734375 429.992188 C 1080.21875 430.09375 1079.695312 430.148438 1079.167969 430.148438 L 1037.742188 430.148438 C 1037.214844 430.148438 1036.695312 430.09375 1036.175781 429.992188 C 1035.660156 429.886719 1035.15625 429.734375 1034.671875 429.535156 C 1034.183594 429.332031 1033.722656 429.085938 1033.28125 428.792969 C 1032.84375 428.5 1032.4375 428.164062 1032.066406 427.792969 C 1031.695312 427.417969 1031.359375 427.015625 1031.066406 426.574219 C 1030.773438 426.136719 1030.527344 425.675781 1030.324219 425.1875 C 1030.121094 424.699219 1029.96875 424.199219 1029.867188 423.679688 C 1029.761719 423.164062 1029.710938 422.640625 1029.710938 422.113281 L 1029.710938 412.472656 C 1029.710938 412.140625 1029.773438 411.824219 1029.898438 411.523438 C 1030.023438 411.21875 1030.203125 410.949219 1030.4375 410.71875 C 1030.667969 410.484375 1030.9375 410.304688 1031.242188 410.179688 C 1031.542969 410.054688 1031.859375 409.992188 1032.1875 409.992188 C 1032.519531 409.992188 1032.832031 410.054688 1033.136719 410.179688 C 1033.441406 410.304688 1033.710938 410.484375 1033.941406 410.71875 C 1034.175781 410.949219 1034.351562 411.21875 1034.480469 411.523438 C 1034.605469 411.824219 1034.667969 412.140625 1034.667969 412.472656 L 1034.667969 421.679688 C 1034.667969 422.148438 1034.757812 422.59375 1034.933594 423.023438 C 1035.113281 423.453125 1035.367188 423.832031 1035.695312 424.164062 C 1036.027344 424.492188 1036.40625 424.746094 1036.835938 424.921875 C 1037.265625 425.101562 1037.710938 425.191406 1038.175781 425.191406 L 1078.734375 425.191406 C 1079.203125 425.191406 1079.648438 425.101562 1080.078125 424.921875 C 1080.507812 424.746094 1080.886719 424.492188 1081.21875 424.164062 C 1081.546875 423.832031 1081.800781 423.453125 1081.976562 423.023438 C 1082.15625 422.59375 1082.246094 422.148438 1082.246094 421.679688 L 1082.246094 412.472656 C 1082.246094 412.140625 1082.308594 411.824219 1082.433594 411.523438 C 1082.5625 411.21875 1082.738281 410.949219 1082.972656 410.71875 C 1083.203125 410.484375 1083.472656 410.308594 1083.777344 410.179688 C 1084.078125 410.054688 1084.394531 409.992188 1084.726562 409.992188 C 1085.054688 409.992188 1085.371094 410.054688 1085.671875 410.179688 C 1085.976562 410.308594 1086.246094 410.484375 1086.476562 410.71875 C 1086.710938 410.949219 1086.886719 411.21875 1087.015625 411.523438 C 1087.140625 411.824219 1087.203125 412.140625 1087.203125 412.472656 Z M 1050.476562 394.832031 L 1055.195312 390.117188 C 1055.351562 389.960938 1055.53125 389.925781 1055.734375 390.007812 C 1055.9375 390.09375 1056.039062 390.246094 1056.039062 390.46875 L 1056.039062 413.800781 C 1056.039062 414.128906 1056.101562 414.445312 1056.230469 414.75 C 1056.355469 415.050781 1056.535156 415.320312 1056.765625 415.550781 C 1057 415.785156 1057.265625 415.964844 1057.570312 416.089844 C 1057.875 416.214844 1058.191406 416.277344 1058.519531 416.277344 C 1058.847656 416.277344 1059.164062 416.214844 1059.46875 416.089844 C 1059.769531 415.964844 1060.039062 415.785156 1060.269531 415.550781 C 1060.503906 415.320312 1060.683594 415.050781 1060.808594 414.75 C 1060.933594 414.445312 1060.996094 414.128906 1060.996094 413.800781 L 1060.996094 390.589844 C 1060.996094 390.371094 1061.097656 390.21875 1061.300781 390.132812 C 1061.507812 390.050781 1061.6875 390.085938 1061.84375 390.242188 L 1066.433594 394.832031 C 1066.671875 395.058594 1066.941406 395.230469 1067.242188 395.351562 C 1067.546875 395.476562 1067.859375 395.535156 1068.1875 395.535156 C 1068.511719 395.535156 1068.828125 395.476562 1069.132812 395.351562 C 1069.433594 395.230469 1069.703125 395.058594 1069.9375 394.832031 C 1070.171875 394.601562 1070.351562 394.332031 1070.476562 394.027344 C 1070.601562 393.726562 1070.664062 393.410156 1070.664062 393.082031 C 1070.664062 392.753906 1070.601562 392.4375 1070.476562 392.132812 C 1070.351562 391.828125 1070.171875 391.5625 1069.9375 391.328125 L 1058.457031 379.847656 L 1046.972656 391.328125 C 1046.742188 391.5625 1046.5625 391.828125 1046.4375 392.132812 C 1046.3125 392.4375 1046.25 392.753906 1046.25 393.082031 C 1046.25 393.410156 1046.3125 393.726562 1046.4375 394.027344 C 1046.5625 394.332031 1046.742188 394.601562 1046.972656 394.832031 C 1047.210938 395.058594 1047.480469 395.230469 1047.78125 395.351562 C 1048.085938 395.476562 1048.398438 395.535156 1048.726562 395.535156 C 1049.050781 395.535156 1049.367188 395.476562 1049.671875 395.351562 C 1049.972656 395.230469 1050.242188 395.058594 1050.476562 394.832031 Z M 1050.476562 394.832031 " fill-opacity="1" fill-rule="nonzero"/></g><g fill="#f8f9fa" fill-opacity="1"><g transform="translate(1103.231669, 418.446928)"><g><path d="M 13.953125 -4.078125 C 14.921875 -4.078125 15.789062 -4.238281 16.5625 -4.5625 C 17.332031 -4.882812 17.976562 -5.335938 18.5 -5.921875 C 19.03125 -6.515625 19.4375 -7.226562 19.71875 -8.0625 C 20 -8.90625 20.140625 -9.847656 20.140625 -10.890625 L 20.140625 -27.140625 L 25.1875 -27.140625 L 25.1875 -10.890625 C 25.1875 -9.273438 24.925781 -7.78125 24.40625 -6.40625 C 23.894531 -5.039062 23.148438 -3.859375 22.171875 -2.859375 C 21.203125 -1.867188 20.023438 -1.09375 18.640625 -0.53125 C 17.253906 0.0195312 15.691406 0.296875 13.953125 0.296875 C 12.203125 0.296875 10.628906 0.0195312 9.234375 -0.53125 C 7.847656 -1.09375 6.671875 -1.867188 5.703125 -2.859375 C 4.734375 -3.859375 3.988281 -5.039062 3.46875 -6.40625 C 2.945312 -7.78125 2.6875 -9.273438 2.6875 -10.890625 L 2.6875 -27.140625 L 7.734375 -27.140625 L 7.734375 -10.90625 C 7.734375 -9.863281 7.875 -8.921875 8.15625 -8.078125 C 8.4375 -7.242188 8.84375 -6.53125 9.375 -5.9375 C 9.90625 -5.34375 10.554688 -4.882812 11.328125 -4.5625 C 12.097656 -4.238281 12.972656 -4.078125 13.953125 -4.078125 Z M 13.953125 -4.078125 "/></g></g></g><g fill="#f8f9fa" fill-opacity="1"><g transform="translate(1131.109656, 418.446928)"><g><path d="M 11.84375 -13.5 C 12.769531 -13.5 13.578125 -13.613281 14.265625 -13.84375 C 14.953125 -14.070312 15.523438 -14.398438 15.984375 -14.828125 C 16.441406 -15.265625 16.78125 -15.789062 17 -16.40625 C 17.226562 -17.03125 17.34375 -17.722656 17.34375 -18.484375 C 17.34375 -19.210938 17.226562 -19.867188 17 -20.453125 C 16.78125 -21.046875 16.441406 -21.546875 15.984375 -21.953125 C 15.535156 -22.367188 14.96875 -22.6875 14.28125 -22.90625 C 13.59375 -23.125 12.78125 -23.234375 11.84375 -23.234375 L 8.078125 -23.234375 L 8.078125 -13.5 Z M 11.84375 -27.140625 C 13.65625 -27.140625 15.222656 -26.925781 16.546875 -26.5 C 17.878906 -26.082031 18.976562 -25.488281 19.84375 -24.71875 C 20.707031 -23.957031 21.347656 -23.046875 21.765625 -21.984375 C 22.179688 -20.921875 22.390625 -19.753906 22.390625 -18.484375 C 22.390625 -17.171875 22.171875 -15.96875 21.734375 -14.875 C 21.296875 -13.78125 20.640625 -12.835938 19.765625 -12.046875 C 18.890625 -11.265625 17.789062 -10.65625 16.46875 -10.21875 C 15.15625 -9.78125 13.613281 -9.5625 11.84375 -9.5625 L 8.078125 -9.5625 L 8.078125 0 L 3.015625 0 L 3.015625 -27.140625 Z M 11.84375 -27.140625 "/></g></g></g><g fill="#f8f9fa" fill-opacity="1"><g transform="translate(1154.350709, 418.446928)"><g><path d="M 18.921875 -4.171875 L 18.921875 0 L 3.015625 0 L 3.015625 -27.140625 L 8.078125 -27.140625 L 8.078125 -4.171875 Z M 18.921875 -4.171875 "/></g></g></g><g fill="#f8f9fa" fill-opacity="1"><g transform="translate(1173.855911, 418.446928)"><g><path d="M 28.90625 -13.578125 C 28.90625 -11.585938 28.578125 -9.742188 27.921875 -8.046875 C 27.265625 -6.347656 26.332031 -4.878906 25.125 -3.640625 C 23.925781 -2.398438 22.484375 -1.429688 20.796875 -0.734375 C 19.109375 -0.046875 17.234375 0.296875 15.171875 0.296875 C 13.117188 0.296875 11.242188 -0.046875 9.546875 -0.734375 C 7.859375 -1.429688 6.410156 -2.398438 5.203125 -3.640625 C 3.992188 -4.878906 3.054688 -6.347656 2.390625 -8.046875 C 1.734375 -9.742188 1.40625 -11.585938 1.40625 -13.578125 C 1.40625 -15.566406 1.734375 -17.40625 2.390625 -19.09375 C 3.054688 -20.789062 3.992188 -22.257812 5.203125 -23.5 C 6.410156 -24.738281 7.859375 -25.707031 9.546875 -26.40625 C 11.242188 -27.101562 13.117188 -27.453125 15.171875 -27.453125 C 16.546875 -27.453125 17.835938 -27.289062 19.046875 -26.96875 C 20.265625 -26.644531 21.378906 -26.191406 22.390625 -25.609375 C 23.410156 -25.035156 24.320312 -24.332031 25.125 -23.5 C 25.9375 -22.664062 26.625 -21.734375 27.1875 -20.703125 C 27.75 -19.679688 28.175781 -18.566406 28.46875 -17.359375 C 28.757812 -16.160156 28.90625 -14.898438 28.90625 -13.578125 Z M 23.75 -13.578125 C 23.75 -15.066406 23.546875 -16.398438 23.140625 -17.578125 C 22.742188 -18.765625 22.175781 -19.769531 21.4375 -20.59375 C 20.695312 -21.414062 19.796875 -22.046875 18.734375 -22.484375 C 17.679688 -22.921875 16.492188 -23.140625 15.171875 -23.140625 C 13.835938 -23.140625 12.640625 -22.921875 11.578125 -22.484375 C 10.523438 -22.046875 9.625 -21.414062 8.875 -20.59375 C 8.132812 -19.769531 7.566406 -18.765625 7.171875 -17.578125 C 6.773438 -16.398438 6.578125 -15.066406 6.578125 -13.578125 C 6.578125 -12.085938 6.773438 -10.75 7.171875 -9.5625 C 7.566406 -8.382812 8.132812 -7.382812 8.875 -6.5625 C 9.625 -5.738281 10.523438 -5.109375 11.578125 -4.671875 C 12.640625 -4.234375 13.835938 -4.015625 15.171875 -4.015625 C 16.492188 -4.015625 17.679688 -4.234375 18.734375 -4.671875 C 19.796875 -5.109375 20.695312 -5.738281 21.4375 -6.5625 C 22.175781 -7.382812 22.742188 -8.382812 23.140625 -9.5625 C 23.546875 -10.75 23.75 -12.085938 23.75 -13.578125 Z M 23.75 -13.578125 "/></g></g></g><g fill="#f8f9fa" fill-opacity="1"><g transform="translate(1204.193183, 418.446928)"><g><path d="M 17.359375 -10.25 L 14.0625 -19.28125 C 13.894531 -19.675781 13.722656 -20.148438 13.546875 -20.703125 C 13.378906 -21.253906 13.207031 -21.847656 13.03125 -22.484375 C 12.863281 -21.847656 12.691406 -21.25 12.515625 -20.6875 C 12.347656 -20.132812 12.179688 -19.65625 12.015625 -19.25 L 8.734375 -10.25 Z M 26.28125 0 L 22.375 0 C 21.9375 0 21.578125 -0.109375 21.296875 -0.328125 C 21.023438 -0.546875 20.820312 -0.816406 20.6875 -1.140625 L 18.65625 -6.6875 L 7.421875 -6.6875 L 5.390625 -1.140625 C 5.285156 -0.859375 5.085938 -0.597656 4.796875 -0.359375 C 4.515625 -0.117188 4.160156 0 3.734375 0 L -0.203125 0 L 10.46875 -27.140625 L 15.625 -27.140625 Z M 26.28125 0 "/></g></g></g><g fill="#f8f9fa" fill-opacity="1"><g transform="translate(1230.268957, 418.446928)"><g><path d="M 27.125 -13.578125 C 27.125 -11.585938 26.789062 -9.757812 26.125 -8.09375 C 25.46875 -6.425781 24.535156 -4.988281 23.328125 -3.78125 C 22.128906 -2.582031 20.6875 -1.648438 19 -0.984375 C 17.3125 -0.328125 15.429688 0 13.359375 0 L 3.015625 0 L 3.015625 -27.140625 L 13.359375 -27.140625 C 15.429688 -27.140625 17.3125 -26.804688 19 -26.140625 C 20.6875 -25.472656 22.128906 -24.539062 23.328125 -23.34375 C 24.535156 -22.144531 25.46875 -20.710938 26.125 -19.046875 C 26.789062 -17.390625 27.125 -15.566406 27.125 -13.578125 Z M 21.953125 -13.578125 C 21.953125 -15.066406 21.753906 -16.398438 21.359375 -17.578125 C 20.960938 -18.765625 20.390625 -19.765625 19.640625 -20.578125 C 18.898438 -21.398438 18 -22.03125 16.9375 -22.46875 C 15.882812 -22.90625 14.691406 -23.125 13.359375 -23.125 L 8.09375 -23.125 L 8.09375 -4.015625 L 13.359375 -4.015625 C 14.691406 -4.015625 15.882812 -4.234375 16.9375 -4.671875 C 18 -5.109375 18.898438 -5.738281 19.640625 -6.5625 C 20.390625 -7.382812 20.960938 -8.382812 21.359375 -9.5625 C 21.753906 -10.75 21.953125 -12.085938 21.953125 -13.578125 Z M 21.953125 -13.578125 "/></g></g></g></svg>