<svg xmlns="http://www.w3.org/2000/svg" xmlns:xlink="http://www.w3.org/1999/xlink" width="1000" zoomAndPan="magnify" viewBox="0 0 750 749.999995" height="1000" preserveAspectRatio="xMidYMid meet" version="1.0"><defs><clipPath id="7134b6a471"><path d="M 45.800781 74 L 704.300781 74 L 704.300781 690 L 45.800781 690 Z M 45.800781 74 " clip-rule="nonzero"/></clipPath></defs><g clip-path="url(#7134b6a471)"><path fill="#ffffff" d="M 424.175781 240.582031 L 409.132812 225.152344 L 346.265625 288.023438 L 337.78125 311.550781 L 361.691406 303.066406 Z M 183.113281 603.914062 C 176.941406 603.914062 171.925781 598.515625 173.085938 591.957031 L 183.882812 521.757812 L 79.746094 521.757812 C 61.230469 521.757812 45.800781 506.71875 45.800781 487.816406 L 45.800781 249.453125 C 45.800781 230.554688 61.230469 215.511719 79.746094 215.511719 L 389.847656 215.511719 L 520.988281 83.988281 C 548.375 56.601562 591.957031 94.402344 567.660156 126.027344 C 576.914062 135.285156 591.570312 145.3125 581.929688 154.957031 L 526.003906 210.496094 C 516.746094 220.140625 502.089844 205.867188 511.730469 196.226562 L 559.945312 147.628906 L 553 140.683594 L 460.433594 233.253906 C 462.746094 238.269531 464.289062 243.667969 464.289062 249.453125 L 464.289062 317.722656 L 671.027344 317.722656 C 689.15625 317.722656 704.195312 332.378906 704.195312 350.507812 L 704.195312 578.457031 C 704.195312 596.585938 689.15625 611.242188 671.027344 611.242188 L 572.285156 611.242188 L 582.316406 677.96875 C 583.859375 687.226562 572.671875 693.398438 565.730469 687.226562 L 477.789062 611.242188 L 336.238281 611.242188 C 318.109375 611.242188 303.066406 596.585938 303.066406 578.457031 L 303.066406 521.757812 L 281.851562 521.757812 L 190.054688 601.601562 C 188.125 603.144531 185.425781 603.914062 183.113281 603.914062 Z M 369.019531 235.953125 L 79.746094 235.953125 C 72.414062 235.953125 66.246094 242.125 66.246094 249.453125 L 66.246094 487.816406 C 66.246094 495.144531 72.414062 501.316406 79.746094 501.316406 L 195.839844 501.316406 C 202.011719 501.316406 207.027344 506.71875 205.867188 513.273438 L 197.769531 567.65625 L 271.054688 503.632812 C 272.980469 502.089844 275.296875 501.316406 277.996094 501.316406 L 430.347656 501.316406 C 437.675781 501.316406 443.847656 495.144531 443.847656 487.816406 L 443.847656 249.839844 L 374.421875 319.265625 C 371.335938 322.351562 323.507812 338.9375 320.808594 338.9375 C 313.480469 338.9375 308.464844 331.992188 311.164062 325.4375 C 313.867188 317.722656 326.59375 278.382812 330.066406 274.910156 Z M 464.289062 338.164062 L 464.289062 487.816406 C 464.289062 506.71875 448.863281 521.757812 430.347656 521.757812 L 323.894531 521.757812 L 323.894531 578.457031 C 323.894531 585.015625 329.292969 590.800781 336.238281 590.800781 L 481.648438 590.800781 C 484.347656 590.800781 486.660156 591.570312 488.589844 593.113281 L 558.015625 653.285156 L 549.914062 602.371094 C 549.144531 596.199219 553.773438 590.800781 560.328125 590.800781 L 671.027344 590.800781 C 677.96875 590.800781 683.367188 585.015625 683.367188 578.457031 L 683.367188 350.507812 C 683.367188 343.566406 677.96875 338.164062 671.027344 338.164062 Z M 271.4375 297.28125 L 117.929688 297.28125 C 104.429688 297.28125 104.429688 276.453125 117.929688 276.453125 L 271.4375 276.453125 C 284.9375 276.453125 284.9375 297.28125 271.4375 297.28125 Z M 271.4375 351.664062 L 117.929688 351.664062 C 104.429688 351.664062 104.429688 331.222656 117.929688 331.222656 L 271.4375 331.222656 C 284.9375 331.222656 284.9375 351.664062 271.4375 351.664062 Z M 392.164062 406.046875 L 117.929688 406.046875 C 104.429688 406.046875 104.429688 385.605469 117.929688 385.605469 L 392.164062 385.605469 C 405.664062 385.605469 405.664062 406.046875 392.164062 406.046875 Z M 392.164062 460.816406 L 117.929688 460.816406 C 104.429688 460.816406 104.429688 439.992188 117.929688 439.992188 L 392.164062 439.992188 C 405.664062 439.992188 405.664062 460.816406 392.164062 460.816406 Z M 613.171875 534.101562 C 608.15625 534.101562 580 519.445312 573.828125 516.359375 L 539.117188 532.945312 C 531.789062 536.417969 523.6875 530.628906 524.460938 522.53125 L 529.472656 484.347656 L 503.246094 456.574219 C 497.460938 450.40625 500.546875 440.761719 508.644531 439.21875 L 546.445312 432.277344 L 564.957031 398.335938 C 568.816406 391.390625 579.230469 391.390625 583.085938 398.335938 L 601.214844 432.277344 L 639.011719 439.21875 C 647.113281 440.761719 650.199219 450.40625 644.800781 456.574219 L 618.183594 484.347656 L 623.199219 522.53125 C 623.972656 528.703125 619.34375 534.101562 613.171875 534.101562 Z M 531.015625 456.191406 C 555.316406 481.261719 551.84375 471.617188 547.601562 506.332031 C 578.84375 491.289062 568.816406 491.289062 600.441406 506.332031 C 595.816406 471.617188 592.730469 481.261719 616.640625 456.191406 C 582.316406 449.632812 590.414062 455.804688 573.828125 424.949219 C 557.246094 455.804688 565.34375 449.632812 531.015625 456.191406 Z M 423.40625 210.496094 L 438.832031 225.925781 L 455.03125 209.726562 L 439.992188 194.296875 Z M 469.691406 195.070312 L 549.914062 114.84375 C 561.871094 102.886719 545.289062 89 535.644531 98.644531 L 454.261719 180.027344 Z M 469.691406 195.070312 " fill-opacity="1" fill-rule="evenodd"/></g></svg>