<svg xmlns="http://www.w3.org/2000/svg" xmlns:xlink="http://www.w3.org/1999/xlink" width="1000" zoomAndPan="magnify" viewBox="0 0 750 749.999995" height="1000" preserveAspectRatio="xMidYMid meet" version="1.0"><defs><clipPath id="1f842f5a18"><path d="M 75 58 L 693.75 58 L 693.75 699.609375 L 75 699.609375 Z M 75 58 " clip-rule="nonzero"/></clipPath></defs><g clip-path="url(#1f842f5a18)"><path fill="#ffffff" d="M 598.675781 699.777344 L 503.441406 699.777344 C 464.070312 699.777344 432.054688 667.757812 432.054688 628.390625 L 432.054688 580.773438 C 432.054688 567.648438 421.367188 557.003906 408.289062 557.003906 L 360.625 557.003906 C 347.503906 557.003906 336.859375 567.691406 336.859375 580.773438 L 336.859375 628.390625 C 336.859375 667.757812 304.84375 699.777344 265.472656 699.777344 L 170.195312 699.777344 C 117.703125 699.777344 75 657.074219 75 604.582031 L 75 350.332031 C 75 323.699219 86.242188 298.136719 105.863281 280.183594 L 320.101562 83.8125 C 356.777344 50.214844 412.136719 50.214844 448.8125 83.8125 L 663.050781 280.183594 C 682.671875 298.179688 693.914062 323.742188 693.914062 350.332031 L 693.914062 604.539062 C 693.871094 657.074219 651.167969 699.777344 598.675781 699.777344 Z M 360.625 509.386719 L 408.289062 509.386719 C 447.65625 509.386719 479.671875 541.402344 479.671875 580.773438 L 479.671875 628.390625 C 479.671875 641.511719 490.359375 652.15625 503.441406 652.15625 L 598.675781 652.15625 C 624.921875 652.15625 646.296875 630.828125 646.296875 604.539062 L 646.296875 350.332031 C 646.296875 337.035156 640.652344 324.253906 630.863281 315.277344 L 416.625 118.90625 C 398.285156 102.0625 370.585938 102.0625 352.25 118.90625 L 138.050781 315.277344 C 128.261719 324.253906 122.617188 337.035156 122.617188 350.332031 L 122.617188 604.539062 C 122.617188 630.785156 143.949219 652.15625 170.238281 652.15625 L 265.472656 652.15625 C 278.597656 652.15625 289.242188 641.46875 289.242188 628.390625 L 289.242188 580.773438 C 289.242188 541.402344 321.257812 509.386719 360.625 509.386719 Z M 360.625 509.386719 " fill-opacity="1" fill-rule="nonzero"/></g></svg>