<svg version="1.0" preserveAspectRatio="xMidYMid meet" viewBox="75 81.749998038 214.49999999999997 220.499994708" zoomAndPan="magnify" xmlns:xlink="http://www.w3.org/1999/xlink" xmlns="http://www.w3.org/2000/svg" style="max-height: 500px" width="214.49999999999997" height="220.499994708"><defs><clipPath id="bd1bda16a5"><path clip-rule="nonzero" d="M 292.777344 0 L 375 0 L 375 375 L 292.777344 375 Z M 292.777344 0"/></clipPath><clipPath id="a3ee168d2a"><path clip-rule="nonzero" d="M 310.027344 -8.359375 L 395.332031 -8.359375 C 399.90625 -8.359375 404.292969 -6.542969 407.527344 -3.308594 C 410.765625 -0.0742188 412.582031 4.316406 412.582031 8.890625 L 412.582031 447.277344 C 412.582031 451.855469 410.765625 456.242188 407.527344 459.476562 C 404.292969 462.710938 399.90625 464.527344 395.332031 464.527344 L 310.027344 464.527344 C 305.449219 464.527344 301.0625 462.710938 297.828125 459.476562 C 294.59375 456.242188 292.777344 451.855469 292.777344 447.277344 L 292.777344 8.890625 C 292.777344 4.316406 294.59375 -0.0742188 297.828125 -3.308594 C 301.0625 -6.542969 305.449219 -8.359375 310.027344 -8.359375 Z M 310.027344 -8.359375"/></clipPath></defs><path fill-rule="nonzero" fill-opacity="1" d="M 245.523438 208.394531 C 242.300781 211.523438 240.832031 216.039062 241.597656 220.484375 L 248.816406 262.660156 C 250.734375 273.8125 239.03125 282.308594 229.042969 277.039062 L 191.230469 257.109375 C 187.257812 255.027344 182.503906 255.027344 178.53125 257.109375 L 140.71875 277.039062 C 131.726562 281.785156 121.347656 275.382812 120.789062 265.910156 C 120.691406 264.863281 120.765625 263.78125 120.949219 262.660156 L 128.179688 220.484375 C 128.917969 216.039062 127.449219 211.523438 124.253906 208.394531 L 93.65625 178.511719 C 85.550781 170.613281 90.035156 156.855469 101.214844 155.226562 L 143.488281 149.078125 C 147.921875 148.421875 151.75 145.644531 153.730469 141.617188 L 172.664062 103.222656 C 177.65625 93.070312 192.082031 93.070312 197.097656 103.222656 L 216.007812 141.617188 C 217.988281 145.632812 221.816406 148.421875 226.25 149.078125 L 268.546875 155.226562 C 269.617188 155.382812 270.625 155.652344 271.5625 156.015625 C 280.480469 159.425781 283.421875 171.355469 276.09375 178.511719 Z M 245.523438 208.394531" fill="#ffbe0d"/><path fill-rule="nonzero" fill-opacity="1" d="M 448.628906 208.394531 C 445.410156 211.523438 443.9375 216.039062 444.703125 220.484375 L 451.921875 262.660156 C 453.84375 273.8125 442.140625 282.308594 432.152344 277.039062 L 394.335938 257.109375 C 390.363281 255.027344 385.613281 255.027344 381.640625 257.109375 L 343.824219 277.039062 C 334.832031 281.785156 324.457031 275.382812 323.898438 265.910156 C 323.800781 264.863281 323.871094 263.78125 324.054688 262.660156 L 331.285156 220.484375 C 332.027344 216.039062 330.554688 211.523438 327.359375 208.394531 L 296.761719 178.511719 C 288.660156 170.613281 293.140625 156.855469 304.320312 155.226562 L 346.59375 149.078125 C 351.03125 148.421875 354.859375 145.644531 356.839844 141.617188 L 375.769531 103.222656 C 380.765625 93.070312 395.1875 93.070312 400.207031 103.222656 L 419.113281 141.617188 C 421.09375 145.632812 424.921875 148.421875 429.355469 149.078125 L 471.65625 155.226562 C 472.726562 155.382812 473.734375 155.652344 474.667969 156.015625 C 483.589844 159.425781 486.527344 171.355469 479.203125 178.511719 Z M 448.628906 208.394531" fill="#ffbe0d"/><path fill-rule="nonzero" fill-opacity="1" d="M 271.574219 156.015625 C 238.097656 210.171875 184.28125 250.390625 120.789062 265.910156 C 120.691406 264.863281 120.765625 263.78125 120.949219 262.660156 L 128.179688 220.484375 C 128.917969 216.039062 127.449219 211.523438 124.253906 208.394531 L 93.65625 178.511719 C 85.550781 170.613281 90.035156 156.855469 101.214844 155.226562 L 143.488281 149.078125 C 147.921875 148.421875 151.75 145.644531 153.730469 141.617188 L 172.664062 103.222656 C 177.65625 93.070312 192.082031 93.070312 197.097656 103.222656 L 216.007812 141.617188 C 217.988281 145.632812 221.816406 148.421875 226.25 149.078125 L 268.546875 155.226562 C 269.640625 155.382812 270.636719 155.640625 271.574219 156.015625 Z M 271.574219 156.015625" fill="#ffce00"/><path fill-rule="nonzero" fill-opacity="1" d="M 474.679688 156.015625 C 441.203125 210.171875 387.386719 250.390625 323.898438 265.910156 C 323.800781 264.863281 323.871094 263.78125 324.054688 262.660156 L 331.285156 220.484375 C 332.027344 216.039062 330.554688 211.523438 327.359375 208.394531 L 296.761719 178.511719 C 288.660156 170.613281 293.140625 156.855469 304.320312 155.226562 L 346.59375 149.078125 C 351.03125 148.421875 354.859375 145.644531 356.839844 141.617188 L 375.769531 103.222656 C 380.765625 93.070312 395.1875 93.070312 400.207031 103.222656 L 419.113281 141.617188 C 421.09375 145.632812 424.921875 148.421875 429.355469 149.078125 L 471.65625 155.226562 C 472.738281 155.382812 473.746094 155.640625 474.679688 156.015625 Z M 474.679688 156.015625" fill="#ffce00"/><g clip-path="url(#bd1bda16a5)"><g clip-path="url(#a3ee168d2a)"><path fill-rule="nonzero" fill-opacity="1" d="M 292.777344 -8.359375 L 412.582031 -8.359375 L 412.582031 464.308594 L 292.777344 464.308594 Z M 292.777344 -8.359375" fill="#ffffff"/></g></g></svg>