<svg xmlns="http://www.w3.org/2000/svg" xmlns:xlink="http://www.w3.org/1999/xlink" width="1920" zoomAndPan="magnify" viewBox="0 0 1440 809.999993" height="1080" preserveAspectRatio="xMidYMid meet" version="1.0"><defs><filter x="0%" y="0%" width="100%" height="100%" id="dc8aa65872"><feColorMatrix values="0 0 0 0 1 0 0 0 0 1 0 0 0 0 1 0 0 0 1 0" color-interpolation-filters="sRGB"/></filter><g/><mask id="26813bed93"><g filter="url(#dc8aa65872)"><rect x="-144" width="1728" fill="#000000" y="-80.999999" height="971.999992" fill-opacity="0.1"/></g></mask><clipPath id="c1e9ebd09e"><path d="M 0.4375 0.359375 L 654 0.359375 L 654 644 L 0.4375 644 Z M 0.4375 0.359375 " clip-rule="nonzero"/></clipPath><clipPath id="d0bef85b0d"><path d="M 38.6875 0.359375 L 615.3125 0.359375 C 625.457031 0.359375 635.183594 4.390625 642.359375 11.5625 C 649.53125 18.738281 653.5625 28.464844 653.5625 38.609375 L 653.5625 605.75 C 653.5625 615.894531 649.53125 625.625 642.359375 632.796875 C 635.183594 639.96875 625.457031 644 615.3125 644 L 38.6875 644 C 28.542969 644 18.816406 639.96875 11.640625 632.796875 C 4.46875 625.625 0.4375 615.894531 0.4375 605.75 L 0.4375 38.609375 C 0.4375 28.464844 4.46875 18.738281 11.640625 11.5625 C 18.816406 4.390625 28.542969 0.359375 38.6875 0.359375 Z M 38.6875 0.359375 " clip-rule="nonzero"/></clipPath><clipPath id="d4c1d47046"><rect x="0" width="655" y="0" height="645"/></clipPath><clipPath id="e181bc6110"><path d="M 529.808594 465.386719 L 910.0625 465.386719 L 910.0625 610.027344 L 529.808594 610.027344 Z M 529.808594 465.386719 " clip-rule="nonzero"/></clipPath><clipPath id="f0b30b54b8"><path d="M 910.0625 510.386719 L 910.0625 565.027344 C 910.0625 576.960938 905.320312 588.410156 896.878906 596.847656 C 888.441406 605.285156 876.996094 610.027344 865.0625 610.027344 L 574.914062 610.027344 C 562.976562 610.027344 551.53125 605.285156 543.09375 596.847656 C 534.652344 588.410156 529.914062 576.960938 529.914062 565.027344 L 529.914062 510.386719 C 529.914062 498.449219 534.652344 487.003906 543.09375 478.566406 C 551.53125 470.125 562.976562 465.386719 574.914062 465.386719 L 865.0625 465.386719 C 876.996094 465.386719 888.441406 470.125 896.878906 478.566406 C 905.320312 487.003906 910.0625 498.449219 910.0625 510.386719 Z M 910.0625 510.386719 " clip-rule="nonzero"/></clipPath><clipPath id="719e957f79"><path d="M 627.191406 516 L 664.816406 516 L 664.816406 558.949219 L 627.191406 558.949219 Z M 627.191406 516 " clip-rule="nonzero"/></clipPath></defs><g mask="url(#26813bed93)"><g transform="matrix(1, 0, 0, 1, 393, 85)"><g clip-path="url(#d4c1d47046)"><g clip-path="url(#c1e9ebd09e)"><g clip-path="url(#d0bef85b0d)"><path fill="#005bff" d="M 0.4375 0.359375 L 654.136719 0.359375 L 654.136719 644 L 0.4375 644 Z M 0.4375 0.359375 " fill-opacity="1" fill-rule="nonzero"/></g></g></g></g></g><g fill="#002b80" fill-opacity="1"><g transform="translate(543.934097, 276.773867)"><g><path d="M 12.609375 0 L 6.125 0 L 6.125 -47.921875 L 12.609375 -47.921875 Z M 12.609375 0 "/></g></g></g><g fill="#002b80" fill-opacity="1"><g transform="translate(562.661467, 276.773867)"><g><path d="M 10.328125 -28.96875 C 11.066406 -29.789062 11.847656 -30.535156 12.671875 -31.203125 C 13.492188 -31.867188 14.367188 -32.441406 15.296875 -32.921875 C 16.222656 -33.398438 17.203125 -33.769531 18.234375 -34.03125 C 19.273438 -34.289062 20.398438 -34.421875 21.609375 -34.421875 C 23.453125 -34.421875 25.082031 -34.113281 26.5 -33.5 C 27.914062 -32.882812 29.097656 -32.015625 30.046875 -30.890625 C 30.992188 -29.765625 31.710938 -28.410156 32.203125 -26.828125 C 32.691406 -25.242188 32.9375 -23.492188 32.9375 -21.578125 L 32.9375 0 L 26.953125 0 L 26.953125 -21.578125 C 26.953125 -24.140625 26.363281 -26.128906 25.1875 -27.546875 C 24.019531 -28.960938 22.242188 -29.671875 19.859375 -29.671875 C 18.097656 -29.671875 16.453125 -29.242188 14.921875 -28.390625 C 13.398438 -27.546875 11.992188 -26.398438 10.703125 -24.953125 L 10.703125 0 L 4.71875 0 L 4.71875 -33.875 L 8.296875 -33.875 C 9.140625 -33.875 9.660156 -33.460938 9.859375 -32.640625 Z M 10.328125 -28.96875 "/></g></g></g><g fill="#002b80" fill-opacity="1"><g transform="translate(599.98246, 276.773867)"><g><path d="M 11 -33.875 L 11 0 L 5.046875 0 L 5.046875 -33.875 Z M 12.28125 -44.515625 C 12.28125 -43.929688 12.160156 -43.390625 11.921875 -42.890625 C 11.691406 -42.390625 11.378906 -41.941406 10.984375 -41.546875 C 10.597656 -41.160156 10.140625 -40.851562 9.609375 -40.625 C 9.085938 -40.40625 8.535156 -40.296875 7.953125 -40.296875 C 7.378906 -40.296875 6.835938 -40.40625 6.328125 -40.625 C 5.828125 -40.851562 5.390625 -41.160156 5.015625 -41.546875 C 4.640625 -41.941406 4.335938 -42.390625 4.109375 -42.890625 C 3.890625 -43.390625 3.78125 -43.929688 3.78125 -44.515625 C 3.78125 -45.097656 3.890625 -45.648438 4.109375 -46.171875 C 4.335938 -46.691406 4.640625 -47.144531 5.015625 -47.53125 C 5.390625 -47.925781 5.828125 -48.234375 6.328125 -48.453125 C 6.835938 -48.679688 7.378906 -48.796875 7.953125 -48.796875 C 8.535156 -48.796875 9.085938 -48.679688 9.609375 -48.453125 C 10.140625 -48.234375 10.597656 -47.925781 10.984375 -47.53125 C 11.378906 -47.144531 11.691406 -46.691406 11.921875 -46.171875 C 12.160156 -45.648438 12.28125 -45.097656 12.28125 -44.515625 Z M 12.28125 -44.515625 "/></g></g></g><g fill="#002b80" fill-opacity="1"><g transform="translate(616.034512, 276.773867)"><g><path d="M 15.125 0.53125 C 12.445312 0.53125 10.390625 -0.210938 8.953125 -1.703125 C 7.515625 -3.203125 6.796875 -5.351562 6.796875 -8.15625 L 6.796875 -28.890625 L 2.703125 -28.890625 C 2.347656 -28.890625 2.046875 -28.992188 1.796875 -29.203125 C 1.554688 -29.421875 1.4375 -29.753906 1.4375 -30.203125 L 1.4375 -32.578125 L 6.984375 -33.28125 L 8.359375 -43.75 C 8.429688 -44.082031 8.582031 -44.351562 8.8125 -44.5625 C 9.039062 -44.78125 9.347656 -44.890625 9.734375 -44.890625 L 12.75 -44.890625 L 12.75 -33.21875 L 22.546875 -33.21875 L 22.546875 -28.890625 L 12.75 -28.890625 L 12.75 -8.5625 C 12.75 -7.132812 13.09375 -6.070312 13.78125 -5.375 C 14.46875 -4.6875 15.359375 -4.34375 16.453125 -4.34375 C 17.078125 -4.34375 17.617188 -4.425781 18.078125 -4.59375 C 18.535156 -4.757812 18.929688 -4.941406 19.265625 -5.140625 C 19.597656 -5.347656 19.878906 -5.535156 20.109375 -5.703125 C 20.347656 -5.867188 20.554688 -5.953125 20.734375 -5.953125 C 21.046875 -5.953125 21.328125 -5.765625 21.578125 -5.390625 L 23.3125 -2.546875 C 22.28125 -1.585938 21.039062 -0.832031 19.59375 -0.28125 C 18.144531 0.257812 16.65625 0.53125 15.125 0.53125 Z M 15.125 0.53125 "/></g></g></g><g fill="#002b80" fill-opacity="1"><g transform="translate(640.012236, 276.773867)"><g><path d="M 11 -33.875 L 11 0 L 5.046875 0 L 5.046875 -33.875 Z M 12.28125 -44.515625 C 12.28125 -43.929688 12.160156 -43.390625 11.921875 -42.890625 C 11.691406 -42.390625 11.378906 -41.941406 10.984375 -41.546875 C 10.597656 -41.160156 10.140625 -40.851562 9.609375 -40.625 C 9.085938 -40.40625 8.535156 -40.296875 7.953125 -40.296875 C 7.378906 -40.296875 6.835938 -40.40625 6.328125 -40.625 C 5.828125 -40.851562 5.390625 -41.160156 5.015625 -41.546875 C 4.640625 -41.941406 4.335938 -42.390625 4.109375 -42.890625 C 3.890625 -43.390625 3.78125 -43.929688 3.78125 -44.515625 C 3.78125 -45.097656 3.890625 -45.648438 4.109375 -46.171875 C 4.335938 -46.691406 4.640625 -47.144531 5.015625 -47.53125 C 5.390625 -47.925781 5.828125 -48.234375 6.328125 -48.453125 C 6.835938 -48.679688 7.378906 -48.796875 7.953125 -48.796875 C 8.535156 -48.796875 9.085938 -48.679688 9.609375 -48.453125 C 10.140625 -48.234375 10.597656 -47.925781 10.984375 -47.53125 C 11.378906 -47.144531 11.691406 -46.691406 11.921875 -46.171875 C 12.160156 -45.648438 12.28125 -45.097656 12.28125 -44.515625 Z M 12.28125 -44.515625 "/></g></g></g><g fill="#002b80" fill-opacity="1"><g transform="translate(656.064288, 276.773867)"><g><path d="M 23.078125 -15.25 C 20.335938 -15.164062 18 -14.945312 16.0625 -14.59375 C 14.132812 -14.25 12.5625 -13.796875 11.34375 -13.234375 C 10.132812 -12.679688 9.253906 -12.023438 8.703125 -11.265625 C 8.160156 -10.515625 7.890625 -9.671875 7.890625 -8.734375 C 7.890625 -7.835938 8.035156 -7.066406 8.328125 -6.421875 C 8.617188 -5.773438 9.015625 -5.242188 9.515625 -4.828125 C 10.015625 -4.421875 10.601562 -4.117188 11.28125 -3.921875 C 11.96875 -3.734375 12.703125 -3.640625 13.484375 -3.640625 C 14.523438 -3.640625 15.476562 -3.742188 16.34375 -3.953125 C 17.21875 -4.171875 18.039062 -4.476562 18.8125 -4.875 C 19.582031 -5.28125 20.316406 -5.757812 21.015625 -6.3125 C 21.722656 -6.875 22.410156 -7.515625 23.078125 -8.234375 Z M 3.84375 -29.09375 C 5.71875 -30.90625 7.734375 -32.253906 9.890625 -33.140625 C 12.054688 -34.035156 14.457031 -34.484375 17.09375 -34.484375 C 18.988281 -34.484375 20.671875 -34.171875 22.140625 -33.546875 C 23.609375 -32.921875 24.84375 -32.050781 25.84375 -30.9375 C 26.851562 -29.820312 27.613281 -28.472656 28.125 -26.890625 C 28.632812 -25.304688 28.890625 -23.566406 28.890625 -21.671875 L 28.890625 0 L 26.25 0 C 25.675781 0 25.234375 -0.09375 24.921875 -0.28125 C 24.609375 -0.46875 24.363281 -0.84375 24.1875 -1.40625 L 23.515625 -4.609375 C 22.617188 -3.785156 21.742188 -3.054688 20.890625 -2.421875 C 20.046875 -1.785156 19.15625 -1.25 18.21875 -0.8125 C 17.289062 -0.382812 16.296875 -0.0546875 15.234375 0.171875 C 14.171875 0.410156 12.992188 0.53125 11.703125 0.53125 C 10.390625 0.53125 9.148438 0.347656 7.984375 -0.015625 C 6.828125 -0.378906 5.816406 -0.929688 4.953125 -1.671875 C 4.097656 -2.410156 3.421875 -3.34375 2.921875 -4.46875 C 2.421875 -5.59375 2.171875 -6.925781 2.171875 -8.46875 C 2.171875 -9.800781 2.535156 -11.085938 3.265625 -12.328125 C 4.003906 -13.566406 5.195312 -14.664062 6.84375 -15.625 C 8.5 -16.582031 10.65625 -17.363281 13.3125 -17.96875 C 15.96875 -18.582031 19.222656 -18.9375 23.078125 -19.03125 L 23.078125 -21.671875 C 23.078125 -24.304688 22.507812 -26.296875 21.375 -27.640625 C 20.238281 -28.992188 18.578125 -29.671875 16.390625 -29.671875 C 14.921875 -29.671875 13.6875 -29.484375 12.6875 -29.109375 C 11.695312 -28.742188 10.835938 -28.332031 10.109375 -27.875 C 9.390625 -27.414062 8.765625 -27.003906 8.234375 -26.640625 C 7.710938 -26.273438 7.195312 -26.09375 6.6875 -26.09375 C 6.289062 -26.09375 5.945312 -26.195312 5.65625 -26.40625 C 5.363281 -26.613281 5.117188 -26.875 4.921875 -27.1875 Z M 3.84375 -29.09375 "/></g></g></g><g fill="#002b80" fill-opacity="1"><g transform="translate(689.305386, 276.773867)"><g><path d="M 15.125 0.53125 C 12.445312 0.53125 10.390625 -0.210938 8.953125 -1.703125 C 7.515625 -3.203125 6.796875 -5.351562 6.796875 -8.15625 L 6.796875 -28.890625 L 2.703125 -28.890625 C 2.347656 -28.890625 2.046875 -28.992188 1.796875 -29.203125 C 1.554688 -29.421875 1.4375 -29.753906 1.4375 -30.203125 L 1.4375 -32.578125 L 6.984375 -33.28125 L 8.359375 -43.75 C 8.429688 -44.082031 8.582031 -44.351562 8.8125 -44.5625 C 9.039062 -44.78125 9.347656 -44.890625 9.734375 -44.890625 L 12.75 -44.890625 L 12.75 -33.21875 L 22.546875 -33.21875 L 22.546875 -28.890625 L 12.75 -28.890625 L 12.75 -8.5625 C 12.75 -7.132812 13.09375 -6.070312 13.78125 -5.375 C 14.46875 -4.6875 15.359375 -4.34375 16.453125 -4.34375 C 17.078125 -4.34375 17.617188 -4.425781 18.078125 -4.59375 C 18.535156 -4.757812 18.929688 -4.941406 19.265625 -5.140625 C 19.597656 -5.347656 19.878906 -5.535156 20.109375 -5.703125 C 20.347656 -5.867188 20.554688 -5.953125 20.734375 -5.953125 C 21.046875 -5.953125 21.328125 -5.765625 21.578125 -5.390625 L 23.3125 -2.546875 C 22.28125 -1.585938 21.039062 -0.832031 19.59375 -0.28125 C 18.144531 0.257812 16.65625 0.53125 15.125 0.53125 Z M 15.125 0.53125 "/></g></g></g><g fill="#002b80" fill-opacity="1"><g transform="translate(713.283111, 276.773867)"><g><path d="M 27.390625 -20.640625 C 27.390625 -22.015625 27.191406 -23.273438 26.796875 -24.421875 C 26.410156 -25.578125 25.84375 -26.570312 25.09375 -27.40625 C 24.351562 -28.238281 23.445312 -28.882812 22.375 -29.34375 C 21.300781 -29.800781 20.085938 -30.03125 18.734375 -30.03125 C 15.878906 -30.03125 13.617188 -29.195312 11.953125 -27.53125 C 10.296875 -25.875 9.265625 -23.578125 8.859375 -20.640625 Z M 32.203125 -4.75 C 31.472656 -3.851562 30.59375 -3.078125 29.5625 -2.421875 C 28.539062 -1.765625 27.441406 -1.222656 26.265625 -0.796875 C 25.097656 -0.378906 23.890625 -0.0664062 22.640625 0.140625 C 21.390625 0.359375 20.15625 0.46875 18.9375 0.46875 C 16.59375 0.46875 14.429688 0.0703125 12.453125 -0.71875 C 10.484375 -1.507812 8.78125 -2.664062 7.34375 -4.1875 C 5.90625 -5.71875 4.785156 -7.609375 3.984375 -9.859375 C 3.179688 -12.117188 2.78125 -14.707031 2.78125 -17.625 C 2.78125 -19.988281 3.140625 -22.195312 3.859375 -24.25 C 4.585938 -26.300781 5.628906 -28.078125 6.984375 -29.578125 C 8.347656 -31.085938 10.007812 -32.269531 11.96875 -33.125 C 13.9375 -33.988281 16.144531 -34.421875 18.59375 -34.421875 C 20.625 -34.421875 22.503906 -34.078125 24.234375 -33.390625 C 25.960938 -32.710938 27.457031 -31.734375 28.71875 -30.453125 C 29.976562 -29.171875 30.960938 -27.585938 31.671875 -25.703125 C 32.390625 -23.816406 32.75 -21.671875 32.75 -19.265625 C 32.75 -18.328125 32.644531 -17.703125 32.4375 -17.390625 C 32.238281 -17.078125 31.863281 -16.921875 31.3125 -16.921875 L 8.65625 -16.921875 C 8.726562 -14.785156 9.023438 -12.925781 9.546875 -11.34375 C 10.066406 -9.757812 10.796875 -8.4375 11.734375 -7.375 C 12.671875 -6.3125 13.785156 -5.519531 15.078125 -5 C 16.378906 -4.476562 17.832031 -4.21875 19.4375 -4.21875 C 20.925781 -4.21875 22.210938 -4.390625 23.296875 -4.734375 C 24.378906 -5.078125 25.3125 -5.445312 26.09375 -5.84375 C 26.875 -6.25 27.523438 -6.625 28.046875 -6.96875 C 28.566406 -7.3125 29.019531 -7.484375 29.40625 -7.484375 C 29.894531 -7.484375 30.269531 -7.296875 30.53125 -6.921875 Z M 32.203125 -4.75 "/></g></g></g><g fill="#002b80" fill-opacity="1"><g transform="translate(748.597607, 276.773867)"><g/></g></g><g fill="#002b80" fill-opacity="1"><g transform="translate(765.719781, 276.773867)"><g><path d="M 22.9375 -5.15625 C 24.789062 -5.15625 26.382812 -5.363281 27.71875 -5.78125 C 29.0625 -6.207031 30.160156 -6.804688 31.015625 -7.578125 C 31.878906 -8.347656 32.507812 -9.257812 32.90625 -10.3125 C 33.3125 -11.375 33.515625 -12.539062 33.515625 -13.8125 C 33.515625 -16.289062 32.632812 -18.25 30.875 -19.6875 C 29.113281 -21.125 26.46875 -21.84375 22.9375 -21.84375 L 12.578125 -21.84375 L 12.578125 -5.15625 Z M 12.578125 -42.8125 L 12.578125 -26.453125 L 21.140625 -26.453125 C 22.960938 -26.453125 24.546875 -26.648438 25.890625 -27.046875 C 27.242188 -27.453125 28.359375 -28.007812 29.234375 -28.71875 C 30.117188 -29.4375 30.773438 -30.300781 31.203125 -31.3125 C 31.628906 -32.332031 31.84375 -33.445312 31.84375 -34.65625 C 31.84375 -37.476562 30.992188 -39.539062 29.296875 -40.84375 C 27.597656 -42.15625 24.96875 -42.8125 21.40625 -42.8125 Z M 21.40625 -47.921875 C 24.34375 -47.921875 26.875 -47.628906 29 -47.046875 C 31.132812 -46.472656 32.890625 -45.648438 34.265625 -44.578125 C 35.640625 -43.515625 36.648438 -42.207031 37.296875 -40.65625 C 37.941406 -39.101562 38.265625 -37.359375 38.265625 -35.421875 C 38.265625 -34.234375 38.078125 -33.097656 37.703125 -32.015625 C 37.335938 -30.941406 36.785156 -29.9375 36.046875 -29 C 35.316406 -28.0625 34.390625 -27.21875 33.265625 -26.46875 C 32.140625 -25.726562 30.816406 -25.125 29.296875 -24.65625 C 32.816406 -23.976562 35.460938 -22.71875 37.234375 -20.875 C 39.015625 -19.039062 39.90625 -16.628906 39.90625 -13.640625 C 39.90625 -11.617188 39.53125 -9.769531 38.78125 -8.09375 C 38.03125 -6.414062 36.9375 -4.972656 35.5 -3.765625 C 34.0625 -2.566406 32.296875 -1.640625 30.203125 -0.984375 C 28.109375 -0.328125 25.722656 0 23.046875 0 L 6.125 0 L 6.125 -47.921875 Z M 21.40625 -47.921875 "/></g></g></g><g fill="#002b80" fill-opacity="1"><g transform="translate(808.959951, 276.773867)"><g><path d="M 32.578125 -33.875 L 32.578125 0 L 29.03125 0 C 28.1875 0 27.648438 -0.410156 27.421875 -1.234375 L 26.953125 -4.890625 C 25.484375 -3.253906 23.832031 -1.941406 22 -0.953125 C 20.175781 0.0351562 18.082031 0.53125 15.71875 0.53125 C 13.863281 0.53125 12.226562 0.226562 10.8125 -0.375 C 9.40625 -0.988281 8.21875 -1.851562 7.25 -2.96875 C 6.289062 -4.09375 5.570312 -5.441406 5.09375 -7.015625 C 4.613281 -8.597656 4.375 -10.351562 4.375 -12.28125 L 4.375 -33.875 L 10.328125 -33.875 L 10.328125 -12.28125 C 10.328125 -9.707031 10.910156 -7.71875 12.078125 -6.3125 C 13.253906 -4.914062 15.046875 -4.21875 17.453125 -4.21875 C 19.210938 -4.21875 20.859375 -4.632812 22.390625 -5.46875 C 23.921875 -6.300781 25.332031 -7.457031 26.625 -8.9375 L 26.625 -33.875 Z M 32.578125 -33.875 "/></g></g></g><g fill="#002b80" fill-opacity="1"><g transform="translate(846.247507, 276.773867)"><g><path d="M 10.875 -49.265625 L 10.875 0 L 4.921875 0 L 4.921875 -49.265625 Z M 10.875 -49.265625 "/></g></g></g><g fill="#002b80" fill-opacity="1"><g transform="translate(862.032007, 276.773867)"><g><path d="M 10.703125 -49.265625 L 10.703125 -20.265625 L 12.234375 -20.265625 C 12.679688 -20.265625 13.054688 -20.328125 13.359375 -20.453125 C 13.660156 -20.578125 13.976562 -20.828125 14.3125 -21.203125 L 25.015625 -32.671875 C 25.328125 -33.054688 25.65625 -33.351562 26 -33.5625 C 26.34375 -33.769531 26.804688 -33.875 27.390625 -33.875 L 32.78125 -33.875 L 20.296875 -20.609375 C 19.691406 -19.847656 19.046875 -19.253906 18.359375 -18.828125 C 18.765625 -18.554688 19.128906 -18.25 19.453125 -17.90625 C 19.773438 -17.5625 20.082031 -17.164062 20.375 -16.71875 L 33.609375 0 L 28.296875 0 C 27.785156 0 27.34375 -0.0820312 26.96875 -0.25 C 26.601562 -0.414062 26.285156 -0.722656 26.015625 -1.171875 L 14.890625 -15.046875 C 14.546875 -15.515625 14.210938 -15.820312 13.890625 -15.96875 C 13.566406 -16.113281 13.070312 -16.1875 12.40625 -16.1875 L 10.703125 -16.1875 L 10.703125 0 L 4.71875 0 L 4.71875 -49.265625 Z M 10.703125 -49.265625 "/></g></g></g><g fill="#002b80" fill-opacity="1"><g transform="translate(498.97196, 369.945717)"><g><path d="M 45.078125 -47.921875 L 25.546875 0 L 19.734375 0 L 0.203125 -47.921875 L 5.390625 -47.921875 C 5.960938 -47.921875 6.425781 -47.773438 6.78125 -47.484375 C 7.144531 -47.203125 7.414062 -46.835938 7.59375 -46.390625 L 21.109375 -12.578125 C 21.390625 -11.816406 21.671875 -10.988281 21.953125 -10.09375 C 22.234375 -9.207031 22.484375 -8.273438 22.703125 -7.296875 C 22.929688 -8.273438 23.164062 -9.207031 23.40625 -10.09375 C 23.65625 -10.988281 23.925781 -11.816406 24.21875 -12.578125 L 37.6875 -46.390625 C 37.820312 -46.765625 38.082031 -47.113281 38.46875 -47.4375 C 38.863281 -47.757812 39.34375 -47.921875 39.90625 -47.921875 Z M 45.078125 -47.921875 "/></g></g></g><g fill="#002b80" fill-opacity="1"><g transform="translate(544.25209, 369.945717)"><g><path d="M 11 -33.875 L 11 0 L 5.046875 0 L 5.046875 -33.875 Z M 12.28125 -44.515625 C 12.28125 -43.929688 12.160156 -43.390625 11.921875 -42.890625 C 11.691406 -42.390625 11.378906 -41.941406 10.984375 -41.546875 C 10.597656 -41.160156 10.140625 -40.851562 9.609375 -40.625 C 9.085938 -40.40625 8.535156 -40.296875 7.953125 -40.296875 C 7.378906 -40.296875 6.835938 -40.40625 6.328125 -40.625 C 5.828125 -40.851562 5.390625 -41.160156 5.015625 -41.546875 C 4.640625 -41.941406 4.335938 -42.390625 4.109375 -42.890625 C 3.890625 -43.390625 3.78125 -43.929688 3.78125 -44.515625 C 3.78125 -45.097656 3.890625 -45.648438 4.109375 -46.171875 C 4.335938 -46.691406 4.640625 -47.144531 5.015625 -47.53125 C 5.390625 -47.925781 5.828125 -48.234375 6.328125 -48.453125 C 6.835938 -48.679688 7.378906 -48.796875 7.953125 -48.796875 C 8.535156 -48.796875 9.085938 -48.679688 9.609375 -48.453125 C 10.140625 -48.234375 10.597656 -47.925781 10.984375 -47.53125 C 11.378906 -47.144531 11.691406 -46.691406 11.921875 -46.171875 C 12.160156 -45.648438 12.28125 -45.097656 12.28125 -44.515625 Z M 12.28125 -44.515625 "/></g></g></g><g fill="#002b80" fill-opacity="1"><g transform="translate(560.304142, 369.945717)"><g><path d="M 26.796875 -25.8125 C 25.679688 -27.3125 24.472656 -28.351562 23.171875 -28.9375 C 21.878906 -29.53125 20.429688 -29.828125 18.828125 -29.828125 C 15.679688 -29.828125 13.257812 -28.703125 11.5625 -26.453125 C 9.875 -24.203125 9.03125 -20.992188 9.03125 -16.828125 C 9.03125 -14.617188 9.21875 -12.726562 9.59375 -11.15625 C 9.976562 -9.582031 10.535156 -8.285156 11.265625 -7.265625 C 12.003906 -6.253906 12.90625 -5.515625 13.96875 -5.046875 C 15.039062 -4.578125 16.257812 -4.34375 17.625 -4.34375 C 19.582031 -4.34375 21.289062 -4.789062 22.75 -5.6875 C 24.21875 -6.582031 25.566406 -7.84375 26.796875 -9.46875 Z M 32.75 -49.265625 L 32.75 0 L 29.203125 0 C 28.347656 0 27.8125 -0.410156 27.59375 -1.234375 L 27.0625 -5.34375 C 25.613281 -3.613281 23.960938 -2.210938 22.109375 -1.140625 C 20.253906 -0.0664062 18.113281 0.46875 15.6875 0.46875 C 13.75 0.46875 11.988281 0.0976562 10.40625 -0.640625 C 8.820312 -1.390625 7.472656 -2.488281 6.359375 -3.9375 C 5.242188 -5.394531 4.382812 -7.203125 3.78125 -9.359375 C 3.175781 -11.523438 2.875 -14.015625 2.875 -16.828125 C 2.875 -19.316406 3.207031 -21.640625 3.875 -23.796875 C 4.550781 -25.953125 5.507812 -27.816406 6.75 -29.390625 C 8 -30.972656 9.53125 -32.21875 11.34375 -33.125 C 13.164062 -34.03125 15.210938 -34.484375 17.484375 -34.484375 C 19.566406 -34.484375 21.347656 -34.128906 22.828125 -33.421875 C 24.304688 -32.722656 25.628906 -31.75 26.796875 -30.5 L 26.796875 -49.265625 Z M 32.75 -49.265625 "/></g></g></g><g fill="#002b80" fill-opacity="1"><g transform="translate(597.75891, 369.945717)"><g><path d="M 27.390625 -20.640625 C 27.390625 -22.015625 27.191406 -23.273438 26.796875 -24.421875 C 26.410156 -25.578125 25.84375 -26.570312 25.09375 -27.40625 C 24.351562 -28.238281 23.445312 -28.882812 22.375 -29.34375 C 21.300781 -29.800781 20.085938 -30.03125 18.734375 -30.03125 C 15.878906 -30.03125 13.617188 -29.195312 11.953125 -27.53125 C 10.296875 -25.875 9.265625 -23.578125 8.859375 -20.640625 Z M 32.203125 -4.75 C 31.472656 -3.851562 30.59375 -3.078125 29.5625 -2.421875 C 28.539062 -1.765625 27.441406 -1.222656 26.265625 -0.796875 C 25.097656 -0.378906 23.890625 -0.0664062 22.640625 0.140625 C 21.390625 0.359375 20.15625 0.46875 18.9375 0.46875 C 16.59375 0.46875 14.429688 0.0703125 12.453125 -0.71875 C 10.484375 -1.507812 8.78125 -2.664062 7.34375 -4.1875 C 5.90625 -5.71875 4.785156 -7.609375 3.984375 -9.859375 C 3.179688 -12.117188 2.78125 -14.707031 2.78125 -17.625 C 2.78125 -19.988281 3.140625 -22.195312 3.859375 -24.25 C 4.585938 -26.300781 5.628906 -28.078125 6.984375 -29.578125 C 8.347656 -31.085938 10.007812 -32.269531 11.96875 -33.125 C 13.9375 -33.988281 16.144531 -34.421875 18.59375 -34.421875 C 20.625 -34.421875 22.503906 -34.078125 24.234375 -33.390625 C 25.960938 -32.710938 27.457031 -31.734375 28.71875 -30.453125 C 29.976562 -29.171875 30.960938 -27.585938 31.671875 -25.703125 C 32.390625 -23.816406 32.75 -21.671875 32.75 -19.265625 C 32.75 -18.328125 32.644531 -17.703125 32.4375 -17.390625 C 32.238281 -17.078125 31.863281 -16.921875 31.3125 -16.921875 L 8.65625 -16.921875 C 8.726562 -14.785156 9.023438 -12.925781 9.546875 -11.34375 C 10.066406 -9.757812 10.796875 -8.4375 11.734375 -7.375 C 12.671875 -6.3125 13.785156 -5.519531 15.078125 -5 C 16.378906 -4.476562 17.832031 -4.21875 19.4375 -4.21875 C 20.925781 -4.21875 22.210938 -4.390625 23.296875 -4.734375 C 24.378906 -5.078125 25.3125 -5.445312 26.09375 -5.84375 C 26.875 -6.25 27.523438 -6.625 28.046875 -6.96875 C 28.566406 -7.3125 29.019531 -7.484375 29.40625 -7.484375 C 29.894531 -7.484375 30.269531 -7.296875 30.53125 -6.921875 Z M 32.203125 -4.75 "/></g></g></g><g fill="#002b80" fill-opacity="1"><g transform="translate(633.073406, 369.945717)"><g><path d="M 19 -34.421875 C 21.46875 -34.421875 23.691406 -34.003906 25.671875 -33.171875 C 27.660156 -32.347656 29.359375 -31.175781 30.765625 -29.65625 C 32.171875 -28.144531 33.25 -26.3125 34 -24.15625 C 34.75 -22.007812 35.125 -19.609375 35.125 -16.953125 C 35.125 -14.273438 34.75 -11.863281 34 -9.71875 C 33.25 -7.582031 32.171875 -5.753906 30.765625 -4.234375 C 29.359375 -2.722656 27.660156 -1.5625 25.671875 -0.75 C 23.691406 0.0625 21.46875 0.46875 19 0.46875 C 16.5 0.46875 14.25 0.0625 12.25 -0.75 C 10.257812 -1.5625 8.5625 -2.722656 7.15625 -4.234375 C 5.75 -5.753906 4.671875 -7.582031 3.921875 -9.71875 C 3.179688 -11.863281 2.8125 -14.273438 2.8125 -16.953125 C 2.8125 -19.609375 3.179688 -22.007812 3.921875 -24.15625 C 4.671875 -26.3125 5.75 -28.144531 7.15625 -29.65625 C 8.5625 -31.175781 10.257812 -32.347656 12.25 -33.171875 C 14.25 -34.003906 16.5 -34.421875 19 -34.421875 Z M 19 -4.1875 C 22.34375 -4.1875 24.835938 -5.304688 26.484375 -7.546875 C 28.140625 -9.785156 28.96875 -12.910156 28.96875 -16.921875 C 28.96875 -20.960938 28.140625 -24.109375 26.484375 -26.359375 C 24.835938 -28.609375 22.34375 -29.734375 19 -29.734375 C 17.300781 -29.734375 15.820312 -29.441406 14.5625 -28.859375 C 13.300781 -28.285156 12.253906 -27.453125 11.421875 -26.359375 C 10.585938 -25.265625 9.960938 -23.921875 9.546875 -22.328125 C 9.140625 -20.734375 8.9375 -18.929688 8.9375 -16.921875 C 8.9375 -12.910156 9.765625 -9.785156 11.421875 -7.546875 C 13.078125 -5.304688 15.601562 -4.1875 19 -4.1875 Z M 19 -4.1875 "/></g></g></g><g fill="#002b80" fill-opacity="1"><g transform="translate(670.996347, 369.945717)"><g/></g></g><g fill="#002b80" fill-opacity="1"><g transform="translate(688.118521, 369.945717)"><g><path d="M 39.765625 -9.90625 C 40.117188 -9.90625 40.429688 -9.757812 40.703125 -9.46875 L 43.28125 -6.6875 C 41.3125 -4.414062 38.925781 -2.644531 36.125 -1.375 C 33.332031 -0.101562 29.953125 0.53125 25.984375 0.53125 C 22.554688 0.53125 19.4375 -0.0625 16.625 -1.25 C 13.8125 -2.445312 11.410156 -4.117188 9.421875 -6.265625 C 7.441406 -8.421875 5.90625 -11.003906 4.8125 -14.015625 C 3.71875 -17.023438 3.171875 -20.335938 3.171875 -23.953125 C 3.171875 -27.554688 3.738281 -30.863281 4.875 -33.875 C 6.019531 -36.882812 7.625 -39.472656 9.6875 -41.640625 C 11.75 -43.804688 14.21875 -45.484375 17.09375 -46.671875 C 19.96875 -47.867188 23.144531 -48.46875 26.625 -48.46875 C 30.03125 -48.46875 33.035156 -47.921875 35.640625 -46.828125 C 38.253906 -45.734375 40.554688 -44.25 42.546875 -42.375 L 40.40625 -39.40625 C 40.269531 -39.175781 40.09375 -38.988281 39.875 -38.84375 C 39.664062 -38.695312 39.382812 -38.625 39.03125 -38.625 C 38.625 -38.625 38.128906 -38.84375 37.546875 -39.28125 C 36.972656 -39.71875 36.21875 -40.203125 35.28125 -40.734375 C 34.34375 -41.273438 33.171875 -41.757812 31.765625 -42.1875 C 30.367188 -42.625 28.644531 -42.84375 26.59375 -42.84375 C 24.113281 -42.84375 21.847656 -42.410156 19.796875 -41.546875 C 17.742188 -40.691406 15.976562 -39.453125 14.5 -37.828125 C 13.019531 -36.203125 11.863281 -34.21875 11.03125 -31.875 C 10.207031 -29.53125 9.796875 -26.890625 9.796875 -23.953125 C 9.796875 -20.960938 10.222656 -18.296875 11.078125 -15.953125 C 11.941406 -13.609375 13.113281 -11.628906 14.59375 -10.015625 C 16.082031 -8.398438 17.832031 -7.164062 19.84375 -6.3125 C 21.863281 -5.46875 24.046875 -5.046875 26.390625 -5.046875 C 27.816406 -5.046875 29.101562 -5.128906 30.25 -5.296875 C 31.394531 -5.460938 32.453125 -5.722656 33.421875 -6.078125 C 34.398438 -6.441406 35.304688 -6.894531 36.140625 -7.4375 C 36.972656 -7.988281 37.800781 -8.640625 38.625 -9.390625 C 39.007812 -9.734375 39.390625 -9.90625 39.765625 -9.90625 Z M 39.765625 -9.90625 "/></g></g></g><g fill="#002b80" fill-opacity="1"><g transform="translate(732.796702, 369.945717)"><g><path d="M 10.375 -27.09375 C 11.4375 -29.40625 12.75 -31.210938 14.3125 -32.515625 C 15.875 -33.828125 17.78125 -34.484375 20.03125 -34.484375 C 20.75 -34.484375 21.4375 -34.40625 22.09375 -34.25 C 22.75 -34.09375 23.332031 -33.847656 23.84375 -33.515625 L 23.40625 -29.0625 C 23.28125 -28.507812 22.945312 -28.234375 22.40625 -28.234375 C 22.09375 -28.234375 21.632812 -28.296875 21.03125 -28.421875 C 20.4375 -28.554688 19.757812 -28.625 19 -28.625 C 17.925781 -28.625 16.972656 -28.46875 16.140625 -28.15625 C 15.304688 -27.84375 14.554688 -27.378906 13.890625 -26.765625 C 13.234375 -26.160156 12.644531 -25.40625 12.125 -24.5 C 11.601562 -23.59375 11.128906 -22.5625 10.703125 -21.40625 L 10.703125 0 L 4.71875 0 L 4.71875 -33.875 L 8.125 -33.875 C 8.769531 -33.875 9.210938 -33.75 9.453125 -33.5 C 9.703125 -33.257812 9.875 -32.835938 9.96875 -32.234375 Z M 10.375 -27.09375 "/></g></g></g><g fill="#002b80" fill-opacity="1"><g transform="translate(757.142289, 369.945717)"><g><path d="M 27.390625 -20.640625 C 27.390625 -22.015625 27.191406 -23.273438 26.796875 -24.421875 C 26.410156 -25.578125 25.84375 -26.570312 25.09375 -27.40625 C 24.351562 -28.238281 23.445312 -28.882812 22.375 -29.34375 C 21.300781 -29.800781 20.085938 -30.03125 18.734375 -30.03125 C 15.878906 -30.03125 13.617188 -29.195312 11.953125 -27.53125 C 10.296875 -25.875 9.265625 -23.578125 8.859375 -20.640625 Z M 32.203125 -4.75 C 31.472656 -3.851562 30.59375 -3.078125 29.5625 -2.421875 C 28.539062 -1.765625 27.441406 -1.222656 26.265625 -0.796875 C 25.097656 -0.378906 23.890625 -0.0664062 22.640625 0.140625 C 21.390625 0.359375 20.15625 0.46875 18.9375 0.46875 C 16.59375 0.46875 14.429688 0.0703125 12.453125 -0.71875 C 10.484375 -1.507812 8.78125 -2.664062 7.34375 -4.1875 C 5.90625 -5.71875 4.785156 -7.609375 3.984375 -9.859375 C 3.179688 -12.117188 2.78125 -14.707031 2.78125 -17.625 C 2.78125 -19.988281 3.140625 -22.195312 3.859375 -24.25 C 4.585938 -26.300781 5.628906 -28.078125 6.984375 -29.578125 C 8.347656 -31.085938 10.007812 -32.269531 11.96875 -33.125 C 13.9375 -33.988281 16.144531 -34.421875 18.59375 -34.421875 C 20.625 -34.421875 22.503906 -34.078125 24.234375 -33.390625 C 25.960938 -32.710938 27.457031 -31.734375 28.71875 -30.453125 C 29.976562 -29.171875 30.960938 -27.585938 31.671875 -25.703125 C 32.390625 -23.816406 32.75 -21.671875 32.75 -19.265625 C 32.75 -18.328125 32.644531 -17.703125 32.4375 -17.390625 C 32.238281 -17.078125 31.863281 -16.921875 31.3125 -16.921875 L 8.65625 -16.921875 C 8.726562 -14.785156 9.023438 -12.925781 9.546875 -11.34375 C 10.066406 -9.757812 10.796875 -8.4375 11.734375 -7.375 C 12.671875 -6.3125 13.785156 -5.519531 15.078125 -5 C 16.378906 -4.476562 17.832031 -4.21875 19.4375 -4.21875 C 20.925781 -4.21875 22.210938 -4.390625 23.296875 -4.734375 C 24.378906 -5.078125 25.3125 -5.445312 26.09375 -5.84375 C 26.875 -6.25 27.523438 -6.625 28.046875 -6.96875 C 28.566406 -7.3125 29.019531 -7.484375 29.40625 -7.484375 C 29.894531 -7.484375 30.269531 -7.296875 30.53125 -6.921875 Z M 32.203125 -4.75 "/></g></g></g><g fill="#002b80" fill-opacity="1"><g transform="translate(792.456785, 369.945717)"><g><path d="M 23.078125 -15.25 C 20.335938 -15.164062 18 -14.945312 16.0625 -14.59375 C 14.132812 -14.25 12.5625 -13.796875 11.34375 -13.234375 C 10.132812 -12.679688 9.253906 -12.023438 8.703125 -11.265625 C 8.160156 -10.515625 7.890625 -9.671875 7.890625 -8.734375 C 7.890625 -7.835938 8.035156 -7.066406 8.328125 -6.421875 C 8.617188 -5.773438 9.015625 -5.242188 9.515625 -4.828125 C 10.015625 -4.421875 10.601562 -4.117188 11.28125 -3.921875 C 11.96875 -3.734375 12.703125 -3.640625 13.484375 -3.640625 C 14.523438 -3.640625 15.476562 -3.742188 16.34375 -3.953125 C 17.21875 -4.171875 18.039062 -4.476562 18.8125 -4.875 C 19.582031 -5.28125 20.316406 -5.757812 21.015625 -6.3125 C 21.722656 -6.875 22.410156 -7.515625 23.078125 -8.234375 Z M 3.84375 -29.09375 C 5.71875 -30.90625 7.734375 -32.253906 9.890625 -33.140625 C 12.054688 -34.035156 14.457031 -34.484375 17.09375 -34.484375 C 18.988281 -34.484375 20.671875 -34.171875 22.140625 -33.546875 C 23.609375 -32.921875 24.84375 -32.050781 25.84375 -30.9375 C 26.851562 -29.820312 27.613281 -28.472656 28.125 -26.890625 C 28.632812 -25.304688 28.890625 -23.566406 28.890625 -21.671875 L 28.890625 0 L 26.25 0 C 25.675781 0 25.234375 -0.09375 24.921875 -0.28125 C 24.609375 -0.46875 24.363281 -0.84375 24.1875 -1.40625 L 23.515625 -4.609375 C 22.617188 -3.785156 21.742188 -3.054688 20.890625 -2.421875 C 20.046875 -1.785156 19.15625 -1.25 18.21875 -0.8125 C 17.289062 -0.382812 16.296875 -0.0546875 15.234375 0.171875 C 14.171875 0.410156 12.992188 0.53125 11.703125 0.53125 C 10.390625 0.53125 9.148438 0.347656 7.984375 -0.015625 C 6.828125 -0.378906 5.816406 -0.929688 4.953125 -1.671875 C 4.097656 -2.410156 3.421875 -3.34375 2.921875 -4.46875 C 2.421875 -5.59375 2.171875 -6.925781 2.171875 -8.46875 C 2.171875 -9.800781 2.535156 -11.085938 3.265625 -12.328125 C 4.003906 -13.566406 5.195312 -14.664062 6.84375 -15.625 C 8.5 -16.582031 10.65625 -17.363281 13.3125 -17.96875 C 15.96875 -18.582031 19.222656 -18.9375 23.078125 -19.03125 L 23.078125 -21.671875 C 23.078125 -24.304688 22.507812 -26.296875 21.375 -27.640625 C 20.238281 -28.992188 18.578125 -29.671875 16.390625 -29.671875 C 14.921875 -29.671875 13.6875 -29.484375 12.6875 -29.109375 C 11.695312 -28.742188 10.835938 -28.332031 10.109375 -27.875 C 9.390625 -27.414062 8.765625 -27.003906 8.234375 -26.640625 C 7.710938 -26.273438 7.195312 -26.09375 6.6875 -26.09375 C 6.289062 -26.09375 5.945312 -26.195312 5.65625 -26.40625 C 5.363281 -26.613281 5.117188 -26.875 4.921875 -27.1875 Z M 3.84375 -29.09375 "/></g></g></g><g fill="#002b80" fill-opacity="1"><g transform="translate(825.697884, 369.945717)"><g><path d="M 15.125 0.53125 C 12.445312 0.53125 10.390625 -0.210938 8.953125 -1.703125 C 7.515625 -3.203125 6.796875 -5.351562 6.796875 -8.15625 L 6.796875 -28.890625 L 2.703125 -28.890625 C 2.347656 -28.890625 2.046875 -28.992188 1.796875 -29.203125 C 1.554688 -29.421875 1.4375 -29.753906 1.4375 -30.203125 L 1.4375 -32.578125 L 6.984375 -33.28125 L 8.359375 -43.75 C 8.429688 -44.082031 8.582031 -44.351562 8.8125 -44.5625 C 9.039062 -44.78125 9.347656 -44.890625 9.734375 -44.890625 L 12.75 -44.890625 L 12.75 -33.21875 L 22.546875 -33.21875 L 22.546875 -28.890625 L 12.75 -28.890625 L 12.75 -8.5625 C 12.75 -7.132812 13.09375 -6.070312 13.78125 -5.375 C 14.46875 -4.6875 15.359375 -4.34375 16.453125 -4.34375 C 17.078125 -4.34375 17.617188 -4.425781 18.078125 -4.59375 C 18.535156 -4.757812 18.929688 -4.941406 19.265625 -5.140625 C 19.597656 -5.347656 19.878906 -5.535156 20.109375 -5.703125 C 20.347656 -5.867188 20.554688 -5.953125 20.734375 -5.953125 C 21.046875 -5.953125 21.328125 -5.765625 21.578125 -5.390625 L 23.3125 -2.546875 C 22.28125 -1.585938 21.039062 -0.832031 19.59375 -0.28125 C 18.144531 0.257812 16.65625 0.53125 15.125 0.53125 Z M 15.125 0.53125 "/></g></g></g><g fill="#002b80" fill-opacity="1"><g transform="translate(849.675608, 369.945717)"><g><path d="M 11 -33.875 L 11 0 L 5.046875 0 L 5.046875 -33.875 Z M 12.28125 -44.515625 C 12.28125 -43.929688 12.160156 -43.390625 11.921875 -42.890625 C 11.691406 -42.390625 11.378906 -41.941406 10.984375 -41.546875 C 10.597656 -41.160156 10.140625 -40.851562 9.609375 -40.625 C 9.085938 -40.40625 8.535156 -40.296875 7.953125 -40.296875 C 7.378906 -40.296875 6.835938 -40.40625 6.328125 -40.625 C 5.828125 -40.851562 5.390625 -41.160156 5.015625 -41.546875 C 4.640625 -41.941406 4.335938 -42.390625 4.109375 -42.890625 C 3.890625 -43.390625 3.78125 -43.929688 3.78125 -44.515625 C 3.78125 -45.097656 3.890625 -45.648438 4.109375 -46.171875 C 4.335938 -46.691406 4.640625 -47.144531 5.015625 -47.53125 C 5.390625 -47.925781 5.828125 -48.234375 6.328125 -48.453125 C 6.835938 -48.679688 7.378906 -48.796875 7.953125 -48.796875 C 8.535156 -48.796875 9.085938 -48.679688 9.609375 -48.453125 C 10.140625 -48.234375 10.597656 -47.925781 10.984375 -47.53125 C 11.378906 -47.144531 11.691406 -46.691406 11.921875 -46.171875 C 12.160156 -45.648438 12.28125 -45.097656 12.28125 -44.515625 Z M 12.28125 -44.515625 "/></g></g></g><g fill="#002b80" fill-opacity="1"><g transform="translate(865.72766, 369.945717)"><g><path d="M 19 -34.421875 C 21.46875 -34.421875 23.691406 -34.003906 25.671875 -33.171875 C 27.660156 -32.347656 29.359375 -31.175781 30.765625 -29.65625 C 32.171875 -28.144531 33.25 -26.3125 34 -24.15625 C 34.75 -22.007812 35.125 -19.609375 35.125 -16.953125 C 35.125 -14.273438 34.75 -11.863281 34 -9.71875 C 33.25 -7.582031 32.171875 -5.753906 30.765625 -4.234375 C 29.359375 -2.722656 27.660156 -1.5625 25.671875 -0.75 C 23.691406 0.0625 21.46875 0.46875 19 0.46875 C 16.5 0.46875 14.25 0.0625 12.25 -0.75 C 10.257812 -1.5625 8.5625 -2.722656 7.15625 -4.234375 C 5.75 -5.753906 4.671875 -7.582031 3.921875 -9.71875 C 3.179688 -11.863281 2.8125 -14.273438 2.8125 -16.953125 C 2.8125 -19.609375 3.179688 -22.007812 3.921875 -24.15625 C 4.671875 -26.3125 5.75 -28.144531 7.15625 -29.65625 C 8.5625 -31.175781 10.257812 -32.347656 12.25 -33.171875 C 14.25 -34.003906 16.5 -34.421875 19 -34.421875 Z M 19 -4.1875 C 22.34375 -4.1875 24.835938 -5.304688 26.484375 -7.546875 C 28.140625 -9.785156 28.96875 -12.910156 28.96875 -16.921875 C 28.96875 -20.960938 28.140625 -24.109375 26.484375 -26.359375 C 24.835938 -28.609375 22.34375 -29.734375 19 -29.734375 C 17.300781 -29.734375 15.820312 -29.441406 14.5625 -28.859375 C 13.300781 -28.285156 12.253906 -27.453125 11.421875 -26.359375 C 10.585938 -25.265625 9.960938 -23.921875 9.546875 -22.328125 C 9.140625 -20.734375 8.9375 -18.929688 8.9375 -16.921875 C 8.9375 -12.910156 9.765625 -9.785156 11.421875 -7.546875 C 13.078125 -5.304688 15.601562 -4.1875 19 -4.1875 Z M 19 -4.1875 "/></g></g></g><g fill="#002b80" fill-opacity="1"><g transform="translate(903.650601, 369.945717)"><g><path d="M 10.328125 -28.96875 C 11.066406 -29.789062 11.847656 -30.535156 12.671875 -31.203125 C 13.492188 -31.867188 14.367188 -32.441406 15.296875 -32.921875 C 16.222656 -33.398438 17.203125 -33.769531 18.234375 -34.03125 C 19.273438 -34.289062 20.398438 -34.421875 21.609375 -34.421875 C 23.453125 -34.421875 25.082031 -34.113281 26.5 -33.5 C 27.914062 -32.882812 29.097656 -32.015625 30.046875 -30.890625 C 30.992188 -29.765625 31.710938 -28.410156 32.203125 -26.828125 C 32.691406 -25.242188 32.9375 -23.492188 32.9375 -21.578125 L 32.9375 0 L 26.953125 0 L 26.953125 -21.578125 C 26.953125 -24.140625 26.363281 -26.128906 25.1875 -27.546875 C 24.019531 -28.960938 22.242188 -29.671875 19.859375 -29.671875 C 18.097656 -29.671875 16.453125 -29.242188 14.921875 -28.390625 C 13.398438 -27.546875 11.992188 -26.398438 10.703125 -24.953125 L 10.703125 0 L 4.71875 0 L 4.71875 -33.875 L 8.296875 -33.875 C 9.140625 -33.875 9.660156 -33.460938 9.859375 -32.640625 Z M 10.328125 -28.96875 "/></g></g></g><g clip-path="url(#e181bc6110)"><g clip-path="url(#f0b30b54b8)"><path fill="#025cff" d="M 910.0625 465.386719 L 910.0625 610.027344 L 529.808594 610.027344 L 529.808594 465.386719 Z M 910.0625 465.386719 " fill-opacity="1" fill-rule="nonzero"/></g></g><g clip-path="url(#719e957f79)"><path fill="#f8f9fa" d="M 663.960938 535.417969 L 631.234375 516.523438 C 630.40625 516.046875 629.382812 516.046875 628.554688 516.523438 C 627.722656 517.003906 627.210938 517.890625 627.210938 518.847656 L 627.210938 556.636719 C 627.210938 557.597656 627.722656 558.480469 628.554688 558.960938 C 628.96875 559.203125 629.429688 559.320312 629.894531 559.320312 C 630.359375 559.320312 630.820312 559.199219 631.234375 558.960938 L 663.960938 540.066406 C 664.792969 539.589844 665.300781 538.703125 665.300781 537.742188 C 665.300781 536.785156 664.792969 535.898438 663.960938 535.417969 Z M 663.960938 535.417969 " fill-opacity="1" fill-rule="nonzero"/></g><g fill="#f8f9fa" fill-opacity="1"><g transform="translate(680.988237, 551.968894)"><g><path d="M 18.546875 -23.5625 C 18.378906 -23.28125 18.207031 -23.078125 18.03125 -22.953125 C 17.851562 -22.828125 17.628906 -22.765625 17.359375 -22.765625 C 17.085938 -22.765625 16.785156 -22.863281 16.453125 -23.0625 C 16.128906 -23.269531 15.738281 -23.5 15.28125 -23.75 C 14.832031 -24.007812 14.304688 -24.238281 13.703125 -24.4375 C 13.109375 -24.644531 12.394531 -24.75 11.5625 -24.75 C 10.820312 -24.75 10.171875 -24.660156 9.609375 -24.484375 C 9.054688 -24.304688 8.585938 -24.054688 8.203125 -23.734375 C 7.828125 -23.421875 7.546875 -23.039062 7.359375 -22.59375 C 7.179688 -22.144531 7.09375 -21.65625 7.09375 -21.125 C 7.09375 -20.445312 7.28125 -19.882812 7.65625 -19.4375 C 8.03125 -18.988281 8.53125 -18.601562 9.15625 -18.28125 C 9.78125 -17.957031 10.488281 -17.671875 11.28125 -17.421875 C 12.082031 -17.171875 12.898438 -16.898438 13.734375 -16.609375 C 14.578125 -16.328125 15.394531 -16 16.1875 -15.625 C 16.988281 -15.25 17.695312 -14.769531 18.3125 -14.1875 C 18.9375 -13.613281 19.4375 -12.90625 19.8125 -12.0625 C 20.195312 -11.226562 20.390625 -10.210938 20.390625 -9.015625 C 20.390625 -7.710938 20.164062 -6.492188 19.71875 -5.359375 C 19.28125 -4.234375 18.628906 -3.25 17.765625 -2.40625 C 16.910156 -1.5625 15.863281 -0.894531 14.625 -0.40625 C 13.394531 0.0703125 11.984375 0.3125 10.390625 0.3125 C 9.472656 0.3125 8.570312 0.222656 7.6875 0.046875 C 6.800781 -0.128906 5.945312 -0.382812 5.125 -0.71875 C 4.3125 -1.050781 3.546875 -1.445312 2.828125 -1.90625 C 2.109375 -2.375 1.472656 -2.894531 0.921875 -3.46875 L 2.484375 -6.03125 C 2.617188 -6.21875 2.789062 -6.375 3 -6.5 C 3.21875 -6.625 3.445312 -6.6875 3.6875 -6.6875 C 4.019531 -6.6875 4.378906 -6.550781 4.765625 -6.28125 C 5.148438 -6.007812 5.609375 -5.707031 6.140625 -5.375 C 6.671875 -5.039062 7.289062 -4.738281 8 -4.46875 C 8.707031 -4.195312 9.554688 -4.0625 10.546875 -4.0625 C 12.078125 -4.0625 13.257812 -4.421875 14.09375 -5.140625 C 14.9375 -5.867188 15.359375 -6.910156 15.359375 -8.265625 C 15.359375 -9.023438 15.164062 -9.640625 14.78125 -10.109375 C 14.40625 -10.585938 13.90625 -10.988281 13.28125 -11.3125 C 12.65625 -11.644531 11.941406 -11.921875 11.140625 -12.140625 C 10.347656 -12.367188 9.539062 -12.613281 8.71875 -12.875 C 7.894531 -13.144531 7.082031 -13.460938 6.28125 -13.828125 C 5.488281 -14.203125 4.78125 -14.6875 4.15625 -15.28125 C 3.53125 -15.882812 3.03125 -16.632812 2.65625 -17.53125 C 2.28125 -18.425781 2.09375 -19.53125 2.09375 -20.84375 C 2.09375 -21.894531 2.300781 -22.914062 2.71875 -23.90625 C 3.132812 -24.90625 3.738281 -25.789062 4.53125 -26.5625 C 5.332031 -27.332031 6.316406 -27.945312 7.484375 -28.40625 C 8.648438 -28.875 9.992188 -29.109375 11.515625 -29.109375 C 13.210938 -29.109375 14.773438 -28.84375 16.203125 -28.3125 C 17.640625 -27.78125 18.863281 -27.039062 19.875 -26.09375 Z M 18.546875 -23.5625 "/></g></g></g><g fill="#f8f9fa" fill-opacity="1"><g transform="translate(702.830327, 551.968894)"><g><path d="M 23.3125 -24.390625 L 14.640625 -24.390625 L 14.640625 0 L 9.28125 0 L 9.28125 -24.390625 L 0.59375 -24.390625 L 0.59375 -28.796875 L 23.3125 -28.796875 Z M 23.3125 -24.390625 "/></g></g></g><g fill="#f8f9fa" fill-opacity="1"><g transform="translate(726.723237, 551.968894)"><g><path d="M 18.421875 -10.875 L 14.921875 -20.453125 C 14.742188 -20.878906 14.5625 -21.382812 14.375 -21.96875 C 14.1875 -22.550781 14.003906 -23.179688 13.828125 -23.859375 C 13.648438 -23.179688 13.46875 -22.546875 13.28125 -21.953125 C 13.09375 -21.359375 12.914062 -20.84375 12.75 -20.40625 L 9.265625 -10.875 Z M 27.875 0 L 23.734375 0 C 23.273438 0 22.898438 -0.113281 22.609375 -0.34375 C 22.316406 -0.582031 22.097656 -0.875 21.953125 -1.21875 L 19.796875 -7.09375 L 7.859375 -7.09375 L 5.71875 -1.21875 C 5.613281 -0.90625 5.40625 -0.625 5.09375 -0.375 C 4.789062 -0.125 4.414062 0 3.96875 0 L -0.21875 0 L 11.109375 -28.796875 L 16.5625 -28.796875 Z M 27.875 0 "/></g></g></g><g fill="#f8f9fa" fill-opacity="1"><g transform="translate(754.379266, 551.968894)"><g><path d="M 11.90625 -15.09375 C 12.914062 -15.09375 13.796875 -15.21875 14.546875 -15.46875 C 15.296875 -15.726562 15.910156 -16.078125 16.390625 -16.515625 C 16.878906 -16.960938 17.242188 -17.488281 17.484375 -18.09375 C 17.722656 -18.707031 17.84375 -19.378906 17.84375 -20.109375 C 17.84375 -21.566406 17.359375 -22.6875 16.390625 -23.46875 C 15.429688 -24.257812 13.960938 -24.65625 11.984375 -24.65625 L 8.5625 -24.65625 L 8.5625 -15.09375 Z M 25.6875 0 L 20.84375 0 C 19.925781 0 19.265625 -0.359375 18.859375 -1.078125 L 12.8125 -10.296875 C 12.582031 -10.640625 12.332031 -10.882812 12.0625 -11.03125 C 11.789062 -11.175781 11.390625 -11.25 10.859375 -11.25 L 8.5625 -11.25 L 8.5625 0 L 3.203125 0 L 3.203125 -28.796875 L 11.984375 -28.796875 C 13.941406 -28.796875 15.617188 -28.59375 17.015625 -28.1875 C 18.421875 -27.78125 19.570312 -27.210938 20.46875 -26.484375 C 21.363281 -25.753906 22.019531 -24.878906 22.4375 -23.859375 C 22.863281 -22.847656 23.078125 -21.734375 23.078125 -20.515625 C 23.078125 -19.546875 22.929688 -18.628906 22.640625 -17.765625 C 22.359375 -16.898438 21.945312 -16.113281 21.40625 -15.40625 C 20.875 -14.707031 20.210938 -14.09375 19.421875 -13.5625 C 18.628906 -13.03125 17.734375 -12.613281 16.734375 -12.3125 C 17.078125 -12.113281 17.394531 -11.875 17.6875 -11.59375 C 17.976562 -11.320312 18.242188 -11.003906 18.484375 -10.640625 Z M 25.6875 0 "/></g></g></g><g fill="#f8f9fa" fill-opacity="1"><g transform="translate(779.98449, 551.968894)"><g><path d="M 23.3125 -24.390625 L 14.640625 -24.390625 L 14.640625 0 L 9.28125 0 L 9.28125 -24.390625 L 0.59375 -24.390625 L 0.59375 -28.796875 L 23.3125 -28.796875 Z M 23.3125 -24.390625 "/></g></g></g></svg>