<svg xmlns="http://www.w3.org/2000/svg" xmlns:xlink="http://www.w3.org/1999/xlink" width="1000" zoomAndPan="magnify" viewBox="0 0 750 749.999995" height="1000" preserveAspectRatio="xMidYMid meet" version="1.0"><defs><clipPath id="73d3c51f28"><path d="M 413 168 L 692.695312 168 L 692.695312 632 L 413 632 Z M 413 168 " clip-rule="nonzero"/></clipPath><clipPath id="56e62581b9"><path d="M 57.445312 168 L 337 168 L 337 632 L 57.445312 632 Z M 57.445312 168 " clip-rule="nonzero"/></clipPath></defs><path fill="#ffffff" d="M 466.257812 546.699219 L 284.105469 546.699219 C 257.175781 546.699219 235.480469 525.003906 235.480469 498.449219 L 235.480469 131.902344 C 235.480469 104.972656 257.175781 83.277344 284.105469 83.277344 L 466.257812 83.277344 C 493.1875 83.277344 514.878906 104.972656 514.878906 131.902344 L 514.878906 498.449219 C 514.878906 525.003906 493.1875 546.699219 466.257812 546.699219 Z M 284.105469 105.71875 C 269.519531 105.71875 257.925781 117.316406 257.925781 131.902344 L 257.925781 498.449219 C 257.925781 512.660156 269.519531 524.628906 284.105469 524.628906 L 466.257812 524.628906 C 480.84375 524.628906 492.4375 512.660156 492.4375 498.449219 L 492.4375 131.902344 C 492.4375 117.316406 480.84375 105.71875 466.257812 105.71875 Z M 284.105469 105.71875 " fill-opacity="1" fill-rule="evenodd"/><g clip-path="url(#73d3c51f28)"><path fill="#ffffff" d="M 644.292969 631.601562 L 461.769531 631.601562 C 435.210938 631.601562 413.144531 609.90625 413.144531 583.351562 L 413.144531 535.476562 C 413.144531 529.492188 418.382812 524.628906 424.367188 524.628906 C 430.722656 524.628906 435.585938 529.492188 435.585938 535.476562 L 435.585938 583.351562 C 435.585938 597.566406 447.179688 609.535156 461.769531 609.535156 L 644.292969 609.535156 C 658.507812 609.535156 670.476562 597.566406 670.476562 583.351562 L 670.476562 216.804688 C 670.476562 202.21875 658.507812 190.625 644.292969 190.625 L 503.660156 190.625 C 497.300781 190.625 492.4375 185.761719 492.4375 179.402344 C 492.4375 173.417969 497.300781 168.183594 503.660156 168.183594 L 644.292969 168.183594 C 670.847656 168.183594 692.542969 189.875 692.542969 216.804688 L 692.542969 583.351562 C 692.542969 609.90625 670.847656 631.601562 644.292969 631.601562 Z M 644.292969 631.601562 " fill-opacity="1" fill-rule="evenodd"/></g><g clip-path="url(#56e62581b9)"><path fill="#ffffff" d="M 288.59375 631.601562 L 106.070312 631.601562 C 79.511719 631.601562 57.445312 609.90625 57.445312 583.351562 L 57.445312 216.804688 C 57.445312 189.875 79.511719 168.183594 106.070312 168.183594 L 246.703125 168.183594 C 252.6875 168.183594 257.925781 173.417969 257.925781 179.402344 C 257.925781 185.761719 252.6875 190.625 246.703125 190.625 L 106.070312 190.625 C 91.855469 190.625 79.886719 202.21875 79.886719 216.804688 L 79.886719 583.351562 C 79.886719 597.566406 91.480469 609.535156 106.070312 609.535156 L 288.59375 609.535156 C 302.808594 609.535156 314.777344 597.566406 314.777344 583.351562 L 314.777344 535.851562 C 314.777344 529.492188 319.636719 524.628906 325.621094 524.628906 C 331.980469 524.628906 336.84375 529.492188 336.84375 535.851562 L 336.84375 583.351562 C 336.84375 609.90625 315.148438 631.601562 288.59375 631.601562 Z M 288.59375 631.601562 " fill-opacity="1" fill-rule="evenodd"/></g><path fill="#ffffff" d="M 150.953125 435.984375 C 148.707031 435.984375 146.464844 435.238281 144.21875 434.117188 C 141.601562 431.871094 139.730469 428.503906 139.730469 424.765625 L 140.105469 366.042969 L 105.320312 318.914062 C 103.078125 315.921875 102.703125 312.183594 103.824219 308.816406 C 104.945312 305.449219 107.566406 302.832031 110.929688 301.710938 L 166.660156 283.757812 L 201.070312 235.882812 C 203.316406 233.261719 206.683594 231.394531 210.046875 231.394531 C 213.789062 231.394531 217.15625 233.261719 219.398438 235.882812 L 255.679688 286.75 C 259.421875 291.609375 258.296875 298.71875 253.0625 302.082031 C 248.199219 305.824219 241.09375 304.703125 237.351562 299.839844 L 210.046875 261.6875 L 182.746094 299.839844 C 181.25 301.710938 179.378906 303.207031 177.132812 303.953125 L 132.625 318.167969 L 160.304688 355.945312 C 161.425781 357.8125 162.546875 360.058594 162.171875 362.675781 L 162.171875 409.429688 L 206.683594 394.84375 C 208.925781 394.09375 211.542969 394.09375 213.789062 394.84375 L 250.070312 406.8125 C 256.054688 408.679688 259.046875 415.039062 257.175781 421.023438 C 255.304688 426.636719 248.945312 430 242.960938 428.132812 L 210.046875 417.285156 L 154.320312 435.613281 C 153.195312 435.984375 152.074219 435.984375 150.953125 435.984375 Z M 150.953125 435.984375 " fill-opacity="1" fill-rule="evenodd"/><path fill="#ffffff" d="M 246.703125 512.660156 L 107.9375 512.660156 C 101.953125 512.660156 96.71875 507.425781 96.71875 501.441406 C 96.71875 495.082031 101.953125 490.21875 107.9375 490.21875 L 246.703125 490.21875 C 253.0625 490.21875 257.925781 495.082031 257.925781 501.441406 C 257.925781 507.425781 253.0625 512.660156 246.703125 512.660156 Z M 246.703125 512.660156 " fill-opacity="1" fill-rule="evenodd"/><path fill="#ffffff" d="M 287.097656 572.503906 L 107.9375 572.503906 C 101.953125 572.503906 96.71875 567.644531 96.71875 561.285156 C 96.71875 555.300781 101.953125 550.4375 107.9375 550.4375 L 287.097656 550.4375 C 293.082031 550.4375 297.945312 555.300781 297.945312 561.285156 C 297.945312 567.644531 293.082031 572.503906 287.097656 572.503906 Z M 287.097656 572.503906 " fill-opacity="1" fill-rule="evenodd"/><path fill="#ffffff" d="M 553.40625 447.207031 C 550.785156 447.207031 548.167969 446.085938 545.925781 444.214844 C 528.34375 427.757812 510.390625 410.550781 495.429688 393.71875 C 491.316406 389.230469 491.691406 382.125 496.179688 378.011719 C 500.667969 373.898438 507.773438 374.269531 511.886719 379.132812 C 524.230469 392.597656 538.816406 406.8125 553.40625 420.648438 C 591.554688 384.742188 628.585938 348.089844 628.585938 314.800781 C 628.585938 298.71875 613.996094 285.625 596.417969 285.625 C 581.082031 285.625 573.230469 291.238281 563.503906 309.9375 C 561.257812 313.679688 557.519531 315.921875 553.40625 315.921875 C 549.289062 315.921875 545.550781 313.679688 543.679688 309.9375 C 533.582031 291.238281 526.101562 285.625 510.390625 285.625 C 508.894531 285.625 507.027344 285.625 505.15625 286 C 499.171875 287.121094 493.5625 282.632812 492.4375 276.648438 C 491.691406 270.664062 495.804688 265.054688 501.789062 263.933594 C 504.78125 263.558594 507.773438 263.183594 510.390625 263.183594 C 531.335938 263.183594 544.429688 272.160156 553.40625 283.757812 C 562.753906 272.160156 575.472656 263.183594 596.417969 263.183594 C 626.339844 263.183594 650.652344 286.375 650.652344 314.800781 C 650.652344 360.058594 605.019531 402.695312 561.257812 444.214844 C 559.015625 446.085938 556.398438 447.207031 553.40625 447.207031 Z M 553.40625 447.207031 " fill-opacity="1" fill-rule="evenodd"/><path fill="#ffffff" d="M 642.421875 512.660156 L 503.660156 512.660156 C 497.300781 512.660156 492.4375 507.425781 492.4375 501.441406 C 492.4375 495.082031 497.300781 490.21875 503.660156 490.21875 L 642.421875 490.21875 C 648.40625 490.21875 653.644531 495.082031 653.644531 501.441406 C 653.644531 507.425781 648.40625 512.660156 642.421875 512.660156 Z M 642.421875 512.660156 " fill-opacity="1" fill-rule="evenodd"/><path fill="#ffffff" d="M 642.421875 572.503906 L 463.265625 572.503906 C 457.28125 572.503906 452.042969 567.644531 452.042969 561.285156 C 452.042969 555.300781 457.28125 550.4375 463.265625 550.4375 L 642.421875 550.4375 C 648.40625 550.4375 653.644531 555.300781 653.644531 561.285156 C 653.644531 567.644531 648.40625 572.503906 642.421875 572.503906 Z M 642.421875 572.503906 " fill-opacity="1" fill-rule="evenodd"/><path fill="#ffffff" d="M 375.742188 359.683594 C 361.902344 359.683594 349.1875 354.449219 339.085938 345.097656 C 328.613281 335.371094 322.628906 321.90625 322.257812 307.695312 C 322.257812 301.710938 327.117188 296.472656 333.101562 296.097656 C 339.085938 296.097656 344.324219 300.960938 344.699219 306.945312 C 344.699219 315.546875 348.4375 323.03125 354.421875 328.640625 C 360.40625 334.625 368.636719 337.617188 376.863281 337.242188 C 385.09375 336.867188 392.949219 333.503906 398.558594 327.519531 C 404.167969 321.535156 407.160156 313.304688 406.785156 305.074219 C 406.785156 296.847656 403.046875 288.992188 397.0625 283.382812 C 391.078125 277.773438 383.222656 274.78125 374.621094 274.78125 C 345.070312 274.78125 320.761719 250.84375 320.761719 221.292969 C 320.761719 191.746094 345.070312 167.808594 374.621094 167.808594 C 403.792969 167.808594 428.105469 191.746094 428.105469 221.292969 C 428.105469 227.652344 422.871094 232.515625 416.886719 232.515625 C 410.527344 232.515625 405.664062 227.652344 405.664062 221.292969 C 405.664062 204.089844 391.824219 190.25 374.621094 190.25 C 357.414062 190.25 343.203125 204.089844 343.203125 221.292969 C 343.203125 238.5 357.414062 252.710938 374.621094 252.710938 C 388.460938 251.964844 401.925781 257.199219 412.398438 266.925781 C 422.871094 277.023438 428.855469 290.113281 429.226562 304.328125 C 429.601562 318.542969 424.738281 332.378906 414.640625 342.851562 C 404.917969 352.953125 391.824219 358.9375 377.613281 359.683594 C 376.863281 359.683594 376.492188 359.683594 375.742188 359.683594 Z M 375.742188 359.683594 " fill-opacity="1" fill-rule="evenodd"/><path fill="#ffffff" d="M 374.996094 382.5 C 369.011719 382.5 363.773438 377.261719 363.773438 371.277344 L 363.773438 348.464844 C 363.773438 342.105469 369.011719 337.242188 374.996094 337.242188 C 381.351562 337.242188 386.214844 342.105469 386.214844 348.464844 L 386.214844 371.277344 C 386.214844 377.261719 381.351562 382.5 374.996094 382.5 Z M 374.996094 190.25 C 369.011719 190.25 363.773438 185.386719 363.773438 179.027344 L 363.773438 156.214844 C 363.773438 150.230469 369.011719 144.992188 374.996094 144.992188 C 381.351562 144.992188 386.214844 150.230469 386.214844 156.214844 L 386.214844 179.027344 C 386.214844 185.386719 381.351562 190.25 374.996094 190.25 Z M 374.996094 190.25 " fill-opacity="1" fill-rule="evenodd"/><path fill="#ffffff" d="M 464.761719 425.140625 L 285.601562 425.140625 C 279.242188 425.140625 274.382812 420.277344 274.382812 414.292969 C 274.382812 407.933594 279.242188 403.070312 285.601562 403.070312 L 464.761719 403.070312 C 471.121094 403.070312 475.980469 407.933594 475.980469 414.292969 C 475.980469 420.277344 471.121094 425.140625 464.761719 425.140625 Z M 464.761719 425.140625 " fill-opacity="1" fill-rule="evenodd"/><path fill="#ffffff" d="M 464.761719 484.984375 L 285.601562 484.984375 C 279.242188 484.984375 274.382812 480.121094 274.382812 473.761719 C 274.382812 467.777344 279.242188 462.914062 285.601562 462.914062 L 464.761719 462.914062 C 471.121094 462.914062 475.980469 467.777344 475.980469 473.761719 C 475.980469 480.121094 471.121094 484.984375 464.761719 484.984375 Z M 464.761719 484.984375 " fill-opacity="1" fill-rule="evenodd"/></svg>